<?xml version="1.0" encoding="UTF-8" standalone="no"?>
<!-- Created with Inkscape (http://www.inkscape.org/) -->

<svg
   width="627.63019mm"
   height="507.43829mm"
   viewBox="0 0 627.63019 507.43829"
   version="1.1"
   id="svg5"
   xml:space="preserve"
   xmlns:inkscape="http://www.inkscape.org/namespaces/inkscape"
   xmlns:sodipodi="http://sodipodi.sourceforge.net/DTD/sodipodi-0.dtd"
   xmlns="http://www.w3.org/2000/svg"
   xmlns:svg="http://www.w3.org/2000/svg"><sodipodi:namedview
     id="namedview7"
     pagecolor="#ffffff"
     bordercolor="#000000"
     borderopacity="0.25"
     inkscape:showpageshadow="2"
     inkscape:pageopacity="0.0"
     inkscape:pagecheckerboard="0"
     inkscape:deskcolor="#d1d1d1"
     inkscape:document-units="mm"
     showgrid="false" /><defs
     id="defs2" /><rect
     style="fill:#333333;fill-opacity:1;stroke-width:1.06336"
     id="rect8442"
     width="3852.5542"
     height="2700.655"
     x="-1952.4481"
     y="-733.4718"
     sodipodi:insensitive="true" /><ellipse
     cx="387.38489"
     cy="69.23645"
     fill="#f2f2f2"
     id="circle1412"
     rx="24.920784"
     ry="24.920786"
     style="stroke-width:0.933335"
     sodipodi:insensitive="true" /><path
     d="m 580.70326,464.01011 c 37.042,-28.21372 54.73415,-75.62403 43.6581,-120.8506 q -0.41283,-1.6856 -0.87145,-3.36355 c -7.34296,-26.84597 -25.50963,-52.36073 -51.98684,-60.93875 -22.23181,-7.2025 -46.49847,-1.6639 -69.69165,-4.52807 C 456.28201,268.70656 420.98398,231.86792 396.14733,193.29748 371.31066,154.72693 352.22283,111.55277 319.22029,79.687903 264.82094,27.16406 176.082,15.85562 108.63462,50.044735 41.187357,84.233919 -1.7758528,160.08545 0.05640725,235.68097 1.8887272,311.27656 46.766457,383.55112 111.94003,421.89747 c 23.94215,14.08687 51.63348,24.06629 79.192,20.57424 23.91217,-3.02997 45.63929,-15.87851 69.43893,-19.69301 37.41853,-5.9973 74.59867,10.92083 106.96287,30.63561 32.36409,19.71475 63.6256,43.08272 100.40307,52.22245 35.71083,8.87462 79.95303,-16.63374 112.76636,-41.62665 z"
     fill="#f2f2f2"
     id="path1414"
     style="stroke-width:0.933335" /><path
     d="m 527.483,51.632177 c -0.81208,-0.541341 -1.63333,-1.054673 -2.44542,-1.577353 A 354.89197,354.89197 0 0 0 450.08135,13.72003 l -6.10403,84.205627 H 405.2812 V 1.4280002 C 402.84517,0.92398015 400.39051,0.44800015 397.93585,1.5021953e-7 V 97.925657 H 351.95029 A 95.452251,95.452255 0 0 1 256.49802,2.4734302 v -7e-5 c -2.464,0.53199 -4.90935,1.1013 -7.3547,1.70798 V 97.925692 H 211.68856 L 205.87385,17.63073 a 355.46876,355.46879 0 0 0 -76.4776,40.62813 c -0.41065,0.28009 -0.82133,0.56935 -1.22266,0.849334 -2.06267,1.446692 -4.09734,2.921358 -6.1227,4.414685 V 384.76799 H 232.4366 l -1.95067,-27.02007 -10.73334,-148.35385 h 216.15139 l -10.73338,148.35385 -1.95067,27.02007 H 532.38298 V 54.880188 Q 529.94691,53.228227 527.483,51.632177 Z M 249.14339,184.89396 h -31.16411 l -5.75869,-79.6136 h 36.9228 z m 148.79249,0 h -52.3415 v -1.57734 a 5.7677862,5.7677866 0 0 0 -5.77735,-5.76802 h -22.75474 a 5.7657515,5.7657519 0 0 0 -5.76803,5.76802 v 1.57734 h -54.7962 v -79.6136 h 141.43782 z m 7.34536,0 v -79.6136 h 38.16412 l -5.75866,79.6136 z"
     fill="#3f3d56"
     id="path1416"
     style="fill:#666666;fill-opacity:1;stroke-width:0.933335" /><path
     d="m -40.383213,405.33951 a 269.73696,269.73697 0 0 0 26.24545,27.0201 l 681.876963,0.93333 a 269.73696,269.73697 0 0 0 26.24545,-27.0201 z"
     fill="#3f3d56"
     id="path1418"
     style="fill:#666666;fill-opacity:1;stroke-width:0.933335"
     sodipodi:insensitive="true" /><path
     d="m 422.01963,318.8197 v 79.99067 a 3.8475211,3.8475211 0 0 0 3.84449,3.84449 h 118.53793 a 3.8475116,3.847512 0 0 0 3.84445,-3.84449 V 318.8197 a 3.8493879,3.8493879 0 0 0 -3.84445,-3.84023 H 425.86412 a 3.8493971,3.8493975 0 0 0 -3.84449,3.84023 z"
     fill="#3f3d56"
     id="path1420"
     style="stroke-width:0.933335"
     sodipodi:insensitive="true" /><path
     d="m 424.80049,319.81498 v 78.00862 a 2.0582217,2.0582218 0 0 0 2.05463,2.05467 h 116.56016 a 2.0582123,2.0582124 0 0 0 2.05467,-2.05467 v -78.00862 a 2.0591363,2.0591364 0 0 0 -2.05467,-2.05894 H 426.85512 a 2.059155,2.0591551 0 0 0 -2.05463,2.05894 z"
     fill="#ff014f"
     id="path1422"
     style="stroke-width:0.933335"
     sodipodi:insensitive="true" /><path
     d="m 419.54053,414.41066 a 2.3052012,2.3052013 0 0 0 1.81391,0.86786 h 126.92624 a 2.3355813,2.3355814 0 0 0 2.28301,-2.81465 l -1.97029,-9.35876 a 2.3398186,2.3398188 0 0 0 -1.45424,-1.69665 2.2630331,2.2630332 0 0 0 -0.8288,-0.15627 H 423.3169 a 2.262837,2.2628372 0 0 0 -0.8288,0.15627 2.339604,2.3396041 0 0 0 -1.45425,1.69665 l -1.97025,9.35876 a 2.3338079,2.3338081 0 0 0 0.47693,1.94679 z"
     fill="#2f2e41"
     id="path1424"
     style="stroke-width:0.933335"
     sodipodi:insensitive="true" /><rect
     x="-545.40906"
     y="-405.28311"
     width="3.9092705"
     height="2.3455586"
     rx="0.45564553"
     transform="scale(-1)"
     fill="#3f3d56"
     id="rect1426"
     style="stroke-width:0.933335"
     sodipodi:insensitive="true" /><rect
     x="-537.59045"
     y="-405.28311"
     width="3.9092705"
     height="2.3455586"
     rx="0.45564553"
     transform="scale(-1)"
     fill="#3f3d56"
     id="rect1428"
     style="stroke-width:0.933335"
     sodipodi:insensitive="true" /><rect
     x="-529.77185"
     y="-405.28311"
     width="3.9092705"
     height="2.3455586"
     rx="0.45564553"
     transform="scale(-1)"
     fill="#3f3d56"
     id="rect1430"
     style="stroke-width:0.933335"
     sodipodi:insensitive="true" /><rect
     x="-521.95343"
     y="-405.28311"
     width="3.9092705"
     height="2.3455586"
     rx="0.45564553"
     transform="scale(-1)"
     fill="#3f3d56"
     id="rect1432"
     style="stroke-width:0.933335"
     sodipodi:insensitive="true" /><rect
     x="-514.13483"
     y="-405.28311"
     width="3.9092705"
     height="2.3455586"
     rx="0.45564553"
     transform="scale(-1)"
     fill="#3f3d56"
     id="rect1434"
     style="stroke-width:0.933335"
     sodipodi:insensitive="true" /><rect
     x="-506.31619"
     y="-405.28311"
     width="3.9092705"
     height="2.3455586"
     rx="0.45564553"
     transform="scale(-1)"
     fill="#3f3d56"
     id="rect1436"
     style="stroke-width:0.933335"
     sodipodi:insensitive="true" /><rect
     x="-498.4978"
     y="-405.28311"
     width="3.9092705"
     height="2.3455586"
     rx="0.45564553"
     transform="scale(-1)"
     fill="#3f3d56"
     id="rect1438"
     style="stroke-width:0.933335"
     sodipodi:insensitive="true" /><rect
     x="-490.67917"
     y="-405.28311"
     width="3.9092705"
     height="2.3455586"
     rx="0.45564553"
     transform="scale(-1)"
     fill="#3f3d56"
     id="rect1440"
     style="stroke-width:0.933335"
     sodipodi:insensitive="true" /><rect
     x="-482.86057"
     y="-405.28311"
     width="3.9092705"
     height="2.3455586"
     rx="0.45564553"
     transform="scale(-1)"
     fill="#3f3d56"
     id="rect1442"
     style="stroke-width:0.933335"
     sodipodi:insensitive="true" /><rect
     x="-475.04218"
     y="-405.28311"
     width="3.9092705"
     height="2.3455586"
     rx="0.45564553"
     transform="scale(-1)"
     fill="#3f3d56"
     id="rect1444"
     style="stroke-width:0.933335"
     sodipodi:insensitive="true" /><rect
     x="-467.22354"
     y="-405.28311"
     width="3.9092705"
     height="2.3455586"
     rx="0.45564553"
     transform="scale(-1)"
     fill="#3f3d56"
     id="rect1446"
     style="stroke-width:0.933335"
     sodipodi:insensitive="true" /><rect
     x="-459.40515"
     y="-405.28311"
     width="3.9092705"
     height="2.3455586"
     rx="0.45564553"
     transform="scale(-1)"
     fill="#3f3d56"
     id="rect1448"
     style="stroke-width:0.933335"
     sodipodi:insensitive="true" /><rect
     x="-451.58652"
     y="-405.28311"
     width="3.9092705"
     height="2.3455586"
     rx="0.45564553"
     transform="scale(-1)"
     fill="#3f3d56"
     id="rect1450"
     style="stroke-width:0.933335"
     sodipodi:insensitive="true" /><rect
     x="-443.76791"
     y="-405.28311"
     width="3.9092705"
     height="2.3455586"
     rx="0.45564553"
     transform="scale(-1)"
     fill="#3f3d56"
     id="rect1452"
     style="stroke-width:0.933335"
     sodipodi:insensitive="true" /><rect
     x="-435.94928"
     y="-405.28311"
     width="3.9092705"
     height="2.3455586"
     rx="0.45564553"
     transform="scale(-1)"
     fill="#3f3d56"
     id="rect1454"
     style="stroke-width:0.933335"
     sodipodi:insensitive="true" /><rect
     x="-428.13089"
     y="-405.28311"
     width="3.9092705"
     height="2.3455586"
     rx="0.45564553"
     transform="scale(-1)"
     fill="#3f3d56"
     id="rect1456"
     style="stroke-width:0.933335"
     sodipodi:insensitive="true" /><rect
     x="-545.5014"
     y="-409.19241"
     width="3.9092705"
     height="2.3455586"
     rx="0.45564553"
     transform="scale(-1)"
     fill="#3f3d56"
     id="rect1458"
     style="stroke-width:0.933335"
     sodipodi:insensitive="true" /><rect
     x="-537.6828"
     y="-409.19241"
     width="3.9092705"
     height="2.3455586"
     rx="0.45564553"
     transform="scale(-1)"
     fill="#3f3d56"
     id="rect1460"
     style="stroke-width:0.933335"
     sodipodi:insensitive="true" /><rect
     x="-529.86444"
     y="-409.19241"
     width="3.9092705"
     height="2.3455586"
     rx="0.45564553"
     transform="scale(-1)"
     fill="#3f3d56"
     id="rect1462"
     style="stroke-width:0.933335"
     sodipodi:insensitive="true" /><rect
     x="-522.04578"
     y="-409.19241"
     width="3.9092705"
     height="2.3455586"
     rx="0.45564553"
     transform="scale(-1)"
     fill="#3f3d56"
     id="rect1464"
     style="stroke-width:0.933335"
     sodipodi:insensitive="true" /><rect
     x="-514.22717"
     y="-409.19241"
     width="3.9092705"
     height="2.3455586"
     rx="0.45564553"
     transform="scale(-1)"
     fill="#3f3d56"
     id="rect1466"
     style="stroke-width:0.933335"
     sodipodi:insensitive="true" /><rect
     x="-506.40857"
     y="-409.19241"
     width="3.9092705"
     height="2.3455586"
     rx="0.45564553"
     transform="scale(-1)"
     fill="#3f3d56"
     id="rect1468"
     style="stroke-width:0.933335"
     sodipodi:insensitive="true" /><rect
     x="-498.59015"
     y="-409.19241"
     width="3.9092705"
     height="2.3455586"
     rx="0.45564553"
     transform="scale(-1)"
     fill="#3f3d56"
     id="rect1470"
     style="stroke-width:0.933335"
     sodipodi:insensitive="true" /><rect
     x="-490.77155"
     y="-409.19241"
     width="3.9092705"
     height="2.3455586"
     rx="0.45564553"
     transform="scale(-1)"
     fill="#3f3d56"
     id="rect1472"
     style="stroke-width:0.933335"
     sodipodi:insensitive="true" /><rect
     x="-482.95294"
     y="-409.19241"
     width="3.9092705"
     height="2.3455586"
     rx="0.45564553"
     transform="scale(-1)"
     fill="#3f3d56"
     id="rect1474"
     style="stroke-width:0.933335"
     sodipodi:insensitive="true" /><rect
     x="-475.13452"
     y="-409.19241"
     width="3.9092705"
     height="2.3455586"
     rx="0.45564553"
     transform="scale(-1)"
     fill="#3f3d56"
     id="rect1476"
     style="stroke-width:0.933335"
     sodipodi:insensitive="true" /><rect
     x="-467.31592"
     y="-409.19241"
     width="3.9092705"
     height="2.3455586"
     rx="0.45564553"
     transform="scale(-1)"
     fill="#3f3d56"
     id="rect1478"
     style="stroke-width:0.933335"
     sodipodi:insensitive="true" /><rect
     x="-459.4975"
     y="-409.19241"
     width="3.9092705"
     height="2.3455586"
     rx="0.45564553"
     transform="scale(-1)"
     fill="#3f3d56"
     id="rect1480"
     style="stroke-width:0.933335"
     sodipodi:insensitive="true" /><rect
     x="-451.67889"
     y="-409.19241"
     width="3.9092705"
     height="2.3455586"
     rx="0.45564553"
     transform="scale(-1)"
     fill="#3f3d56"
     id="rect1482"
     style="stroke-width:0.933335"
     sodipodi:insensitive="true" /><rect
     x="-443.86026"
     y="-409.19241"
     width="3.9092705"
     height="2.3455586"
     rx="0.45564553"
     transform="scale(-1)"
     fill="#3f3d56"
     id="rect1484"
     style="stroke-width:0.933335"
     sodipodi:insensitive="true" /><rect
     x="-436.04166"
     y="-409.19241"
     width="3.9092705"
     height="2.3455586"
     rx="0.45564553"
     transform="scale(-1)"
     fill="#3f3d56"
     id="rect1486"
     style="stroke-width:0.933335"
     sodipodi:insensitive="true" /><rect
     x="-428.22327"
     y="-409.19241"
     width="3.9092705"
     height="2.3455586"
     rx="0.45564553"
     transform="scale(-1)"
     fill="#3f3d56"
     id="rect1488"
     style="stroke-width:0.933335"
     sodipodi:insensitive="true" /><rect
     x="-507.97232"
     y="-413.88354"
     width="31.274176"
     height="2.3455586"
     rx="0.45564553"
     transform="scale(-1)"
     fill="#3f3d56"
     id="rect1490"
     style="stroke-width:0.933335"
     sodipodi:insensitive="true" /><rect
     x="440.87421"
     y="334.82245"
     width="5.5681453"
     height="2.914026"
     rx="1.4570129"
     fill="#ffffff"
     id="rect1492"
     style="stroke-width:0.933335"
     sodipodi:insensitive="true" /><rect
     x="471.2291"
     y="334.82245"
     width="5.5681453"
     height="2.914026"
     rx="1.4570129"
     fill="#ffffff"
     id="rect1494"
     style="stroke-width:0.933335"
     sodipodi:insensitive="true" /><rect
     x="479.82971"
     y="334.82245"
     width="5.5681453"
     height="2.914026"
     rx="1.4570129"
     fill="#ffffff"
     id="rect1496"
     style="stroke-width:0.933335"
     sodipodi:insensitive="true" /><rect
     x="449.13074"
     y="334.57956"
     width="19.409786"
     height="2.914026"
     rx="1.4570129"
     fill="#ffffff"
     id="rect1498"
     style="stroke-width:0.933335"
     sodipodi:insensitive="true" /><rect
     x="489.60394"
     y="334.57956"
     width="19.409786"
     height="2.914026"
     rx="1.4570129"
     fill="#ffffff"
     id="rect1500"
     style="stroke-width:0.933335"
     sodipodi:insensitive="true" /><rect
     x="448.96884"
     y="341.39935"
     width="5.5681453"
     height="2.914026"
     rx="1.4570129"
     fill="#ffffff"
     id="rect1502"
     style="stroke-width:0.933335"
     sodipodi:insensitive="true" /><rect
     x="479.32373"
     y="341.39935"
     width="5.5681453"
     height="2.914026"
     rx="1.4570129"
     fill="#ffffff"
     id="rect1504"
     style="stroke-width:0.933335"
     sodipodi:insensitive="true" /><rect
     x="487.92435"
     y="341.39935"
     width="5.5681453"
     height="2.914026"
     rx="1.4570129"
     fill="#ffffff"
     id="rect1506"
     style="stroke-width:0.933335"
     sodipodi:insensitive="true" /><rect
     x="457.22537"
     y="341.1564"
     width="19.409786"
     height="2.914026"
     rx="1.4570129"
     fill="#ffffff"
     id="rect1508"
     style="stroke-width:0.933335"
     sodipodi:insensitive="true" /><rect
     x="497.69858"
     y="341.1564"
     width="19.409786"
     height="2.914026"
     rx="1.4570129"
     fill="#ffffff"
     id="rect1510"
     style="stroke-width:0.933335"
     sodipodi:insensitive="true" /><rect
     x="457.06348"
     y="347.97626"
     width="5.5681453"
     height="2.914026"
     rx="1.4570129"
     fill="#ffffff"
     id="rect1512"
     style="stroke-width:0.933335"
     sodipodi:insensitive="true" /><rect
     x="487.41837"
     y="347.97626"
     width="5.5681453"
     height="2.914026"
     rx="1.4570129"
     fill="#ffffff"
     id="rect1514"
     style="stroke-width:0.933335"
     sodipodi:insensitive="true" /><rect
     x="496.01898"
     y="347.97626"
     width="5.5681453"
     height="2.914026"
     rx="1.4570129"
     fill="#ffffff"
     id="rect1516"
     style="stroke-width:0.933335"
     sodipodi:insensitive="true" /><rect
     x="465.32025"
     y="347.73334"
     width="19.409786"
     height="2.914026"
     rx="1.4570129"
     fill="#ffffff"
     id="rect1518"
     style="stroke-width:0.933335"
     sodipodi:insensitive="true" /><rect
     x="505.79321"
     y="347.73334"
     width="19.409786"
     height="2.914026"
     rx="1.4570129"
     fill="#ffffff"
     id="rect1520"
     style="stroke-width:0.933335"
     sodipodi:insensitive="true" /><rect
     x="465.15811"
     y="354.55319"
     width="5.5681453"
     height="2.914026"
     rx="1.4570129"
     fill="#ffffff"
     id="rect1522"
     style="stroke-width:0.933335"
     sodipodi:insensitive="true" /><rect
     x="495.513"
     y="354.55319"
     width="5.5681453"
     height="2.914026"
     rx="1.4570129"
     fill="#ffffff"
     id="rect1524"
     style="stroke-width:0.933335"
     sodipodi:insensitive="true" /><rect
     x="504.11362"
     y="354.55319"
     width="5.5681453"
     height="2.914026"
     rx="1.4570129"
     fill="#ffffff"
     id="rect1526"
     style="stroke-width:0.933335"
     sodipodi:insensitive="true" /><rect
     x="473.41489"
     y="354.31024"
     width="19.409786"
     height="2.914026"
     rx="1.4570129"
     fill="#ffffff"
     id="rect1528"
     style="stroke-width:0.933335"
     sodipodi:insensitive="true" /><rect
     x="471.2291"
     y="380.70572"
     width="5.5681453"
     height="2.914026"
     rx="1.4570129"
     fill="#ffffff"
     id="rect1530"
     style="stroke-width:0.933335"
     sodipodi:insensitive="true" /><rect
     x="479.82971"
     y="380.70572"
     width="5.5681453"
     height="2.914026"
     rx="1.4570129"
     fill="#ffffff"
     id="rect1532"
     style="stroke-width:0.933335"
     sodipodi:insensitive="true" /><rect
     x="489.60394"
     y="380.94858"
     width="19.409786"
     height="2.914026"
     rx="1.4570129"
     fill="#ffffff"
     id="rect1534"
     style="stroke-width:0.933335"
     sodipodi:insensitive="true" /><rect
     x="440.87421"
     y="380.70572"
     width="5.5681453"
     height="2.914026"
     rx="1.4570129"
     fill="#ffffff"
     id="rect1536"
     style="stroke-width:0.933335"
     sodipodi:insensitive="true" /><rect
     x="449.13074"
     y="380.94858"
     width="19.409786"
     height="2.914026"
     rx="1.4570129"
     fill="#ffffff"
     id="rect1538"
     style="stroke-width:0.933335"
     sodipodi:insensitive="true" /><rect
     x="448.96884"
     y="374.12878"
     width="5.5681453"
     height="2.914026"
     rx="1.4570129"
     fill="#ffffff"
     id="rect1540"
     style="stroke-width:0.933335"
     sodipodi:insensitive="true" /><rect
     x="479.32373"
     y="374.12878"
     width="5.5681453"
     height="2.914026"
     rx="1.4570129"
     fill="#ffffff"
     id="rect1542"
     style="stroke-width:0.933335"
     sodipodi:insensitive="true" /><rect
     x="487.92435"
     y="374.12878"
     width="5.5681453"
     height="2.914026"
     rx="1.4570129"
     fill="#ffffff"
     id="rect1544"
     style="stroke-width:0.933335"
     sodipodi:insensitive="true" /><rect
     x="457.22537"
     y="374.37173"
     width="19.409786"
     height="2.914026"
     rx="1.4570129"
     fill="#ffffff"
     id="rect1546"
     style="stroke-width:0.933335"
     sodipodi:insensitive="true" /><rect
     x="457.06348"
     y="367.55188"
     width="5.5681453"
     height="2.914026"
     rx="1.4570129"
     fill="#ffffff"
     id="rect1548"
     style="stroke-width:0.933335"
     sodipodi:insensitive="true" /><rect
     x="487.41837"
     y="367.55188"
     width="5.5681453"
     height="2.914026"
     rx="1.4570129"
     fill="#ffffff"
     id="rect1550"
     style="stroke-width:0.933335"
     sodipodi:insensitive="true" /><rect
     x="496.01898"
     y="367.55188"
     width="5.5681453"
     height="2.914026"
     rx="1.4570129"
     fill="#ffffff"
     id="rect1552"
     style="stroke-width:0.933335"
     sodipodi:insensitive="true" /><rect
     x="465.32025"
     y="367.79483"
     width="19.409786"
     height="2.914026"
     rx="1.4570129"
     fill="#ffffff"
     id="rect1554"
     style="stroke-width:0.933335"
     sodipodi:insensitive="true" /><rect
     x="465.15811"
     y="360.97504"
     width="5.5681453"
     height="2.914026"
     rx="1.4570129"
     fill="#ffffff"
     id="rect1556"
     style="stroke-width:0.933335"
     sodipodi:insensitive="true" /><rect
     x="495.513"
     y="360.97504"
     width="5.5681453"
     height="2.914026"
     rx="1.4570129"
     fill="#ffffff"
     id="rect1558"
     style="stroke-width:0.933335"
     sodipodi:insensitive="true" /><rect
     x="504.11362"
     y="360.97504"
     width="5.5681453"
     height="2.914026"
     rx="1.4570129"
     fill="#ffffff"
     id="rect1560"
     style="stroke-width:0.933335"
     sodipodi:insensitive="true" /><rect
     x="473.41489"
     y="361.21793"
     width="19.409786"
     height="2.914026"
     rx="1.4570129"
     fill="#ffffff"
     id="rect1562"
     style="stroke-width:0.933335"
     sodipodi:insensitive="true" /><path
     d="m 430.87451,457.78444 -12.45959,-19.69492 39.10866,-31.17607 16.14237,-17.88373 a 17.884016,17.884016 0 0 1 30.2569,6.37273 v 0 A 17.883997,17.883998 0 0 1 493.124,417.79413 l -25.52564,9.4037 z"
     fill="#ffb6b6"
     id="path1564"
     style="stroke-width:0.933335"
     sodipodi:insensitive="true" /><path
     d="m 138.52807,314.98321 v 95.72297 h 67.06022 v -95.72297 a 3.2181443,3.2181445 0 0 0 -2.26801,-3.08002 2.9632501,2.9632502 0 0 0 -0.96134,-0.14932 h -60.5922 a 3.2324057,3.2324058 0 0 0 -3.23867,3.22935 z m 26.17077,32.89077 a 7.1589989,7.1589993 0 0 1 14.31735,0 v 11.10672 a 7.1587844,7.1587848 0 0 1 -14.31735,0 z"
     fill="#2f2e41"
     id="path1566"
     style="stroke-width:0.933335"
     sodipodi:insensitive="true" /><path
     d="m 138.3228,407.64492 v 9.2307 a 1.8164782,1.8164783 0 0 0 1.80132,1.81067 h 63.86823 a 1.8104115,1.8104116 0 0 0 1.80135,-1.81067 v -9.2307 z"
     fill="#3f3d56"
     id="path1568"
     style="stroke-width:0.933335"
     sodipodi:insensitive="true" /><path
     d="m 33.033057,170.7641 v 174.77653 a 8.4066927,8.4066931 0 0 0 8.40003,8.40002 H 300.43396 a 8.4066553,8.4066557 0 0 0 8.40003,-8.40002 V 170.7641 a 8.4107339,8.4107343 0 0 0 -8.40003,-8.39071 H 41.433087 a 8.4107713,8.4107717 0 0 0 -8.40003,8.39071 z"
     fill="#3f3d56"
     id="path1570"
     style="stroke-width:0.933335" /><path
     d="m 39.109047,172.93871 v 170.44593 a 4.4971234,4.4971234 0 0 0 4.48937,4.48934 H 298.27794 a 4.497086,4.4970863 0 0 0 4.48937,-4.48934 V 172.93871 a 4.4991207,4.499121 0 0 0 -4.48937,-4.49868 H 43.598417 a 4.4991581,4.4991581 0 0 0 -4.48937,4.49868 z"
     fill="#ffffff"
     id="path1572"
     style="stroke-width:0.933335" /><path
     d="m 86.373217,418.06089 a 2.7518494,2.7518495 0 0 0 2.16536,1.03601 H 240.0564 a 2.7881095,2.7881096 0 0 0 2.72537,-3.36001 l -2.35201,-11.17203 a 2.7931402,2.7931403 0 0 0 -1.73602,-2.02536 2.7015798,2.70158 0 0 0 -0.98934,-0.1866 H 90.881237 a 2.7013558,2.701356 0 0 0 -0.98934,0.1866 2.7929068,2.792907 0 0 0 -1.73599,2.02536 l -2.35201,11.17203 a 2.7860095,2.7860096 0 0 0 0.56932,2.324 z"
     fill="#2f2e41"
     id="path1574"
     style="stroke-width:0.933335"
     sodipodi:insensitive="true" /><path
     d="M 290.01281,191.91973 H 51.710167 a 0.94789657,0.94789661 0 0 1 0,-1.89533 H 290.01281 a 0.94789657,0.94789661 0 0 1 0,1.89533 z"
     fill="#3f3d56"
     id="path1576"
     style="stroke-width:0.933335"
     sodipodi:insensitive="true" /><ellipse
     cx="67.931717"
     cy="179.5083"
     rx="5.5537534"
     ry="5.6775236"
     fill="#3f3d56"
     id="ellipse1578"
     style="stroke-width:0.933335"
     sodipodi:insensitive="true" /><ellipse
     cx="87.117416"
     cy="179.5083"
     rx="5.5537534"
     ry="5.6775236"
     fill="#3f3d56"
     id="ellipse1580"
     style="stroke-width:0.933335"
     sodipodi:insensitive="true" /><ellipse
     cx="106.30312"
     cy="179.5083"
     rx="5.5537534"
     ry="5.6775236"
     fill="#3f3d56"
     id="ellipse1582"
     style="stroke-width:0.933335"
     sodipodi:insensitive="true" /><path
     d="m 278.45984,175.23479 h -13.62673 a 1.0316168,1.0316169 0 0 0 0,2.06267 h 13.62673 a 1.0314395,1.0314396 0 0 0 0,-2.06267 z"
     fill="#3f3d56"
     id="path1584"
     style="stroke-width:0.933335"
     sodipodi:insensitive="true" /><path
     d="m 278.45984,179.10813 h -13.62673 a 1.0315888,1.0315889 0 0 0 0,2.06268 h 13.62673 a 1.0314115,1.0314116 0 0 0 0,-2.06268 z"
     fill="#3f3d56"
     id="path1586"
     style="stroke-width:0.933335"
     sodipodi:insensitive="true" /><path
     d="m 278.45984,182.98142 h -13.62673 a 1.0316168,1.0316169 0 0 0 0,2.06268 h 13.62673 a 1.0314395,1.0314396 0 0 0 0,-2.06268 z"
     fill="#3f3d56"
     id="path1588"
     style="stroke-width:0.933335"
     sodipodi:insensitive="true" /><path
     d="m 606.97502,411.69595 a 5.9884831,5.9884834 0 0 0 5.77093,4.04228 l 24.72581,-0.6363 a 5.9066202,5.9066205 0 0 0 5.58213,-4.34657 l 3.49896,-37.41487 a 9.1411817,9.1411824 0 0 0 3.95543,0.81275 9.0172828,9.0172835 0 1 0 -0.45258,-18.02888 7.6383606,7.6383609 0 0 0 -1.62046,0.16862 6.1111516,6.1111519 0 0 0 -4.54912,-1.96282 l -38.03393,0.98215 a 5.4627625,5.4627628 0 0 0 -0.93819,0.11641 5.9402668,5.9402672 0 0 0 -4.54831,7.71367 z m 40.29538,-40.89584 2.48979,-8.91593 a 6.0727448,6.0727451 0 0 0 0.0176,-3.14963 c 0.121,-3.2e-4 0.22753,-0.0575 0.34817,-0.0579 a 6.4498125,6.4498128 0 0 1 0.30196,12.89602 6.0716061,6.0716064 0 0 1 -3.15901,-0.77261 z"
     fill="#2f2e41"
     id="path1590"
     style="stroke-width:0.933335"
     sodipodi:insensitive="true" /><path
     d="m 604.914,355.42869 c 0.81032,4.63318 9.92052,7.89029 20.87486,7.32415 10.07323,-0.46409 18.30969,-4.00122 19.81868,-8.19328 a 5.6234553,5.6234553 0 0 0 -1.72142,-0.22964 l -38.03393,0.98214 a 5.4627625,5.4627628 0 0 0 -0.93819,0.11641 z"
     fill="#3f3d56"
     id="path1592"
     style="stroke-width:0.933335"
     sodipodi:insensitive="true" /><path
     d="m 627.79648,391.13621 a 0.46348556,0.4634856 0 0 0 0.14075,-0.0621 l 5.36963,-3.51462 a 0.46594957,0.46594961 0 0 0 3.2e-4,-0.78048 l -5.58115,-3.65559 a 0.46641273,0.46641277 0 1 0 -0.51143,0.78013 l 4.98488,3.26498 -4.77308,3.12475 a 0.46658425,0.46658429 0 0 0 0.36993,0.84281 z"
     fill="#ff014f"
     id="path1594"
     style="stroke-width:0.933335"
     sodipodi:insensitive="true" /><path
     d="m 619.31549,391.52731 a 0.46666824,0.46666828 0 0 0 0.11782,-0.8572 l -4.94954,-2.83765 4.78392,-3.55343 a 0.46634244,0.46634244 0 1 0 -0.5563,-0.74862 l -5.35605,3.9785 a 0.46621093,0.46621093 0 0 0 0.0459,0.7791 l 5.5676,3.19171 a 0.46638826,0.46638829 0 0 0 0.34676,0.0476 z"
     fill="#ff014f"
     id="path1596"
     style="stroke-width:0.933335"
     sodipodi:insensitive="true" /><path
     d="m 627.2624,394.21623 a 0.45017621,0.45017621 0 0 0 0.1277,-0.054 0.46644424,0.46644428 0 0 0 0.15627,-0.64131 l -7.61179,-12.51452 a 0.46691303,0.46691303 0 0 0 -0.79748,0.48586 l 7.61183,12.51451 a 0.46699493,0.46699493 0 0 0 0.51322,0.20954 z"
     fill="#ff014f"
     id="path1598"
     style="stroke-width:0.933335"
     sodipodi:insensitive="true" /><rect
     x="155.0432"
     y="243.43953"
     width="47.338043"
     height="10.122689"
     rx="3.0465691"
     fill="#ff014f"
     id="rect1600"
     style="stroke-width:0.933335"
     sodipodi:insensitive="true" /><rect
     x="131.00169"
     y="263.68491"
     width="95.420799"
     height="10.122689"
     rx="3.0465691"
     fill="#e6e6e6"
     id="rect1602"
     style="stroke-width:0.933335"
     sodipodi:insensitive="true" /><rect
     x="131.00169"
     y="283.93024"
     width="95.420799"
     height="10.122689"
     rx="3.0465691"
     fill="#e6e6e6"
     id="rect1604"
     style="stroke-width:0.933335"
     sodipodi:insensitive="true" /><path
     d="m 230.94821,351.72406 0.20213,0.63882 0.0106,0.0212 6.09014,18.51555 7.00589,21.33694 13.18123,40.09737 0.1277,6.2286 v 0.0212 l 0.97954,50.10569 -2.71503,6.79294 3.05575,11.13689 c 0,0 -1.40545,-16.83459 -8.94359,-7.16693 -4.26952,5.49398 -9.26308,11.11566 -13.3623,16.38607 q 8.95972,3.62539 18.20675,6.55863 c 1.33095,0.42592 2.67245,0.8305 4.01402,1.23511 q 0.43114,0.1277 0.86239,0.2554 a 249.07337,249.07339 0 0 0 62.86104,10.10416 c 1.10726,0.0317 2.19333,0.0533 3.24737,0.0744 0.37269,0.0106 0.73465,0.0212 1.09665,0.0212 1.1925,0.0106 2.37431,0.0212 3.5668,0.0212 q 3.60941,0 7.18686,-0.10653 a 249.06399,249.06401 0 0 0 52.35223,-7.0804 c -0.11712,-7.08036 -0.4365,-15.35326 -0.89431,-24.19039 -0.21307,-4.33341 -4.99356,-9.02882 -5.28106,-13.56453 -0.20248,-3.40711 4.08856,-6.61194 3.86495,-10.07228 -1.448,-21.30505 -3.25803,-13.12658 -4.5996,-28.21365 q -0.20777,-2.21997 -0.38327,-4.24822 c -0.86242,-9.68897 -1.45865,-15.74725 -1.45865,-15.74725 l 5.72817,-36.10462 8.9969,-56.68566 -0.69208,-1.13926 -0.77723,-0.38328 -47.45458,-23.48771 -2.57661,-6.60127 a 10.246924,10.246925 0 0 0 -9.46535,-6.48418 l -31.26014,-0.12777 a 10.20246,10.202461 0 0 0 -8.31554,4.22698 l -8.46441,11.7225 z"
     fill="#3f3d56"
     id="path1606"
     style="stroke-width:0.933335"
     sodipodi:insensitive="true" /><path
     d="m 264.64661,423.41158 -7.08044,15.15106 -4.83372,10.34904 -8.31548,43.5364 -4.16309,4.41857 -3.5668,-15.64213 -37.33133,8.28891 c -1.22446,-6.80359 -0.32772,0.23 -1.08378,-7.23346 0.21307,-0.21307 0.4365,-0.42592 0.66011,-0.63888 0.59627,-0.55365 1.09669,-1.07538 1.08604,-1.57577 -0.42589,-25.74488 0.85177,-69.55813 11.52027,-96.10158 a 56.04992,56.04992 0 0 1 6.55867,-12.23362 c 0.21307,-0.2875 0.41523,-0.57499 0.61754,-0.86238 4.91902,-6.88879 8.02797,-13.67104 12.43592,-18.49419 v -0.0106 a 0.4949297,0.4949297 0 0 0 0.0744,-0.0745 0.14653382,0.14653382 0 0 0 0.0427,-0.0321 l 30.2806,-16.05592 1.29899,36.49856 0.9263,26.23472 z"
     fill="#3f3d56"
     id="path1608"
     style="stroke-width:0.933335"
     sodipodi:insensitive="true" /><path
     d="m 373.83284,427.71493 8.84429,18.92338 3.08694,6.5902 8.31307,43.53235 4.14938,4.4078 3.57502,-15.63828 1.67983,-0.34465 30.2947,-6.27428 8.8299,28.04331 a 16.785124,16.785125 0 0 0 -3.0438,-21.00524 c -0.603,-0.54561 -1.1055,-1.07682 -1.09122,-1.57933 0.50261,-30.28031 -1.34957,-85.57168 -18.07622,-108.32853 -5.31235,-7.22193 -8.49972,-14.41514 -13.13728,-19.4403 -0.0141,-0.0141 -0.0141,-0.0282 -0.0282,-0.0282 l -11.28519,-18.47833 -0.68915,-1.13431 -0.77525,-0.3876 z"
     fill="#3f3d56"
     id="path1610"
     style="stroke-width:0.933335"
     sodipodi:insensitive="true" /><circle
     id="a657ec4b-47ce-4d2a-9c58-81a811696ca9"
     data-name="Ellipse 5"
     cx="320.25491"
     cy="249.38806"
     fill="#ffb6b6"
     style="stroke-width:0.933335"
     r="41.587852"
     sodipodi:insensitive="true" /><path
     d="m 376.46567,220.33912 a 3.5087199,3.5087201 0 0 0 -2.51067,-1.11067 l 0.62533,-1.736 a 3.2925219,3.2925221 0 0 0 -3.69601,-4.38668 l -2.27733,0.43866 0.21483,-1.52133 a 3.2982899,3.2982901 0 0 0 -4.41469,-3.56535 3.5152346,3.5152348 0 0 1 -3.02401,-0.21465 3.5900508,3.5900511 0 0 1 -1.79201,-2.43606 l -0.79331,-3.82668 -0.084,-0.20534 c -3.86399,-6.44002 -11.29334,-11.12537 -20.38407,-12.84271 -8.09207,-1.54 -16.38937,-0.756 -24.38807,-0.0187 -3.17333,0.29868 -6.75735,0.63467 -9.74404,2.46401 -2.53868,1.56801 -4.68535,4.70402 -4.24666,7.86803 -7.8867,-2.41734 -16.34274,2.408 -20.53343,8.49336 -4.96534,7.24269 -5.77735,16.31472 -5.90801,23.40808 -0.35466,16.78139 3.108,30.51077 10.26671,40.81481 0.52265,0.74667 0.65334,2.30534 1.68932,2.82801 l -0.21483,-0.34535 c 1.15733,0.57867 2.33335,1.51201 1.89466,2.51068 -1.25998,2.87467 7.11204,9.2307 13.01074,11.3307 10.76135,3.83602 25.06939,3.50935 35.13077,2.12801 l 0.35466,-2.38001 c 3.63068,-0.49467 6.18803,-1.43734 6.9067,-2.91201 1.2694,-1.08267 2.35201,-2.05334 3.29468,-2.94934 l 0.0106,-0.009 c 0.0176,-0.0187 0.0561,-0.0467 0.0748,-0.0653 4.54534,-4.35869 5.60002,-6.84131 6.07603,-10.62132 0.45735,-3.70535 -0.35466,-7.46669 -1.18534,-10.8547 17.49072,2.70667 -6.88804,-18.62941 9.40804,-22.75475 a 5.0717506,5.071751 0 0 1 0.56931,-0.14001 c 0.47601,-0.112 0.95202,-0.224 1.40937,-0.35467 a 24.685313,24.685315 0 0 0 6.27199,-2.67867 c 4.55469,-2.77201 6.05737,-6.44936 8.40937,-10.59337 a 3.1980962,3.1980964 0 0 0 -0.41999,-3.76136 z"
     fill="#2f2e41"
     id="path1613"
     style="stroke-width:0.933335"
     sodipodi:insensitive="true" /><path
     d="m 467.34465,430.67583 c -0.0106,1.63334 -0.0282,3.92002 -0.10265,6.74804 q -0.0141,0.58801 -0.0282,1.20399 c -0.12135,5.19869 -0.2427,9.55739 -0.43869,14.40138 -0.0106,0.33583 -0.0176,0.66269 -0.0374,0.99869 -0.26139,6.75735 -0.672,14.62538 -1.38136,27.08543 -1.316,23.01606 -3.61199,3.16399 -5.91732,11.23736 -0.11218,0.40134 -0.23353,0.87735 -0.34535,1.43735 a 26.054854,26.054855 0 0 1 -1.75469,5.90801 c -1.22265,0.72802 -2.48267,1.428 -3.72398,2.12801 -3.53735,1.96933 -7.13067,3.86396 -10.75201,5.66535 -2.03473,1.008 -4.07868,1.99734 -6.13201,2.94933 -0.32665,0.14921 -0.64403,0.29878 -0.96133,0.43869 a 252.82887,252.82888 0 0 1 -32.43344,12.37602 c -2.16537,0.65334 -4.32138,1.28802 -6.50537,1.87603 -2.27733,0.63465 -4.5547,1.23201 -6.86004,1.79201 a 249.10126,249.10127 0 0 1 -52.35084,7.084 c -2.37999,0.0748 -4.77866,0.10265 -7.18669,0.10265 -1.19465,0 -2.37067,-0.0106 -3.56535,-0.0176 -0.36398,0 -0.72799,-0.0106 -1.092,-0.0176 -1.05467,-0.0282 -2.14666,-0.0466 -3.24801,-0.0748 a 248.88638,248.88639 0 0 1 -62.86022,-10.10804 l -0.868,-0.25187 c -1.344,-0.41065 -2.67866,-0.81198 -4.01335,-1.24132 q -9.24008,-2.92601 -18.20939,-6.55204 -6.84603,-2.75799 -13.53339,-5.91736 a 0.31603707,0.31603711 0 0 1 -0.11182,-0.0561 c -0.93333,-0.42934 -1.876,-0.87734 -2.80932,-1.33469 -0.12135,-0.0653 -0.25187,-0.13052 -0.38267,-0.19613 q -5.22208,-2.548 -10.33205,-5.33866 c -2.86534,-6.58009 -6.89735,-7.84003 -9.39868,-13.62673 a 24.148738,24.148739 0 0 1 -1.56801,-5.35736 c 0,-0.0176 -0.0106,-0.0374 -0.0106,-0.0653 0.26139,3.47202 -1.11066,-6.16002 -0.0106,-0.0374 -0.0106,-0.11182 -0.0176,-0.23317 -0.0282,-0.37336 -0.0282,-0.33582 -0.0653,-0.74664 -0.12135,-1.25997 -3.20134,-31.25746 -2.996,-67.00424 -4.38668,-96.46034 q -0.14004,-2.85603 -0.28926,-5.46936 c -0.0282,-0.57866 -0.0653,-1.14801 -0.10265,-1.70802 0.0653,-0.16791 0.14004,-0.34534 0.224,-0.51333 a 0.93520317,0.93520324 0 0 1 0.0653,-0.14004 1.5147492,1.5147492 0 0 1 0.0935,-0.16791 c 0.0176,-0.0282 0.0466,-0.0653 0.0653,-0.0935 a 0.85580425,0.85580428 0 0 1 0.0466,-0.0935 c 0.084,-0.13052 0.17744,-0.27056 0.28009,-0.40133 0.0466,-0.0561 0.084,-0.10265 0.13052,-0.14921 a 0.75435991,0.75435994 0 0 1 0.11183,-0.13052 0.59453536,0.59453539 0 0 1 0.10265,-0.12135 c 0.0374,-0.0374 0.0748,-0.084 0.12135,-0.13052 a 0.28148497,0.28148497 0 0 1 0.0748,-0.0748 1.8975945,1.8975946 0 0 1 0.2427,-0.23317 8.9823091,8.9823098 0 0 1 1.06402,-0.84002 c 0.13052,-0.084 0.27056,-0.16791 0.40133,-0.26139 a 17.859656,17.859656 0 0 1 2.95868,-1.41869 c 0.35466,-0.13052 0.70933,-0.25186 1.092,-0.38267 0.14004,-0.0374 0.27056,-0.0839 0.41068,-0.13052 0.2053,-0.0653 0.41064,-0.13052 0.62533,-0.17743 1.06398,-0.31749 2.212,-0.58801 3.45335,-0.83999 0.14922,-0.0282 0.30796,-0.0561 0.46666,-0.0935 0.224,-0.0466 0.45732,-0.084 0.69067,-0.12135 0.31748,-0.0561 0.64399,-0.11218 0.97068,-0.16791 2.772,-0.43869 5.91732,-0.76534 9.38933,-0.98003 q 0.49002,-0.0282 0.98003,-0.0561 c 0.38267,-0.0176 0.76535,-0.0374 1.15733,-0.0561 0.32665,-0.0176 0.66265,-0.0282 0.99865,-0.0374 0.32666,-0.0176 0.66269,-0.0282 1.00801,-0.0374 0.94267,-0.0282 1.91335,-0.0561 2.90269,-0.0748 2.81868,-0.0561 5.7867,-0.0374 8.90402,0.0282 1.44669,0.0374 2.92136,0.0748 4.43334,0.14005 0.10266,0 0.19614,0.0106 0.28926,0.0106 1.316,0.0466 2.64134,0.10265 4.00401,0.17744 0.95198,0.0466 1.91332,0.0935 2.87462,0.14921 0.90535,0.0561 1.82001,0.11218 2.74402,0.17744 0.71868,0.0374 1.43731,0.0935 2.16533,0.14005 0.61599,0.0466 1.23201,0.0935 1.84799,0.13087 l 0.84002,0.0561 c 0.45735,0.0374 0.91467,0.0653 1.38133,0.11217 1.02666,0.084 2.05336,0.16792 3.09869,0.25187 1.03601,0.0935 2.09068,0.18661 3.14536,0.28009 1.05463,0.0935 2.11866,0.19613 3.18264,0.29879 0.11183,0.0106 0.21483,0.0176 0.31748,0.0282 0.97068,0.10265 1.94137,0.19613 2.92136,0.29878 0.224,0.0176 0.45732,0.0374 0.68132,0.0653 0.93438,0.0938 1.88696,0.2039 2.82988,0.30408 0.28926,0.0317 0.57726,0.0614 0.8675,0.0931 0.73861,0.0804 1.46677,0.15027 2.21056,0.2374 0.98003,0.11183 1.97875,0.21483 2.94936,0.34535 0.756,0.084 1.51199,0.16791 2.26799,0.2614 1.18533,0.14004 2.38936,0.28926 3.59336,0.448 0.45735,0.0561 0.91466,0.11182 1.37201,0.17743 3.43465,0.42934 6.90667,0.90535 10.4347,1.39999 5.34801,0.75603 10.78004,1.57735 16.24936,2.46401 q 8.21812,1.33003 16.52939,2.80936 c 1.40002,0.25187 2.80001,0.50402 4.20938,0.76534 q 0.95199,0.18202 1.90401,0.36394 c 1.08264,0.19613 2.16533,0.40133 3.24801,0.60667 1.08265,0.2053 2.16533,0.41068 3.24801,0.62533 1.28799,0.25187 2.58532,0.50402 3.87334,0.75603 8.48402,1.68001 16.92134,3.47201 25.15342,5.34801 1.35332,0.30796 2.70667,0.62533 4.05067,0.93333 q 4.03202,0.93801 7.98935,1.904 c 0.72802,0.16791 1.4467,0.34535 2.16537,0.52268 1.792,0.448 3.58401,0.89601 5.34801,1.35332 l 0.30795,0.084 c 1.29734,0.31748 2.56667,0.64399 3.83603,0.97999 q 4.49402,1.17599 8.83868,2.38002 2.884,0.798 5.70271,1.61467 c 2.80932,0.81198 5.56266,1.63334 8.24135,2.46401 0.66266,0.20531 1.32535,0.41065 1.97865,0.60667 1.96003,0.60664 3.89204,1.22266 5.76804,1.83864 1.49333,0.48536 2.94933,0.98003 4.38668,1.4747 q 2.15601,0.74199 4.228,1.48398 c 0.88669,0.31748 1.76404,0.65334 2.64134,0.97069 1.26002,0.46666 2.50137,0.93332 3.71471,1.40002 0.37332,0.14004 0.73733,0.28926 1.10131,0.4293 0.23317,0.10266 0.45735,0.18661 0.68135,0.28009 0.43865,0.17744 0.88665,0.34535 1.31599,0.52268 0.43869,0.16791 0.868,0.34535 1.29734,0.532 0.42003,0.16791 0.84933,0.34534 1.26001,0.52264 0.42,0.16791 0.83067,0.34535 1.24135,0.53203 0.34535,0.14004 0.68132,0.28926 1.00801,0.43865 0.66265,0.28926 1.32531,0.57866 1.96934,0.87734 0.31712,0.14922 0.63464,0.28927 0.95198,0.43866 l 0.72802,0.33582 c 0.10265,0.0561 0.20531,0.10265 0.30796,0.14922 0.23317,0.11218 0.47601,0.23317 0.70932,0.34535 0.54131,0.25187 1.07334,0.52268 1.59602,0.77469 0.70001,0.35466 1.38132,0.70932 2.03466,1.05467 0.66269,0.35459 1.30669,0.70933 1.92267,1.0546 0.10265,0.0561 0.19613,0.11218 0.29879,0.16792 0.14004,0.0748 0.28009,0.15874 0.41999,0.23352 0.47601,0.27057 0.93336,0.55066 1.39067,0.82126 0.89601,0.55068 1.74534,1.09203 2.53869,1.63333 0.17744,0.12135 0.34535,0.2427 0.52265,0.3547 0.58801,0.41999 1.14801,0.83067 1.67069,1.25066 0,0.0106 0,0.0106 0.0106,0.0106 0.17744,0.13052 0.34535,0.27056 0.51337,0.40133 0.14004,0.13052 0.28926,0.24269 0.4293,0.37336 0.48536,0.41999 0.93336,0.82129 1.34401,1.232 a 5.289218,5.2892183 0 0 1 0.39202,0.40133 1.1278345,1.1278346 0 0 1 0.14921,0.14922 c 0.18661,0.18661 0.35466,0.37336 0.51333,0.56 a 0.51573376,0.51573379 0 0 1 0.0653,0.084 c 0.224,0.26139 0.42934,0.52268 0.62534,0.784 0.0935,0.13087 0.19613,0.26139 0.28009,0.39202 0.11217,0.15874 0.224,0.32665 0.31748,0.48532 0.084,0.13052 0.15874,0.27057 0.23317,0.4014 a 6.7728498,6.7728502 0 0 1 0.50402,1.05461 4.8918967,4.891897 0 0 1 0.25187,0.76534 5.4548106,5.454811 0 0 1 0.15874,0.75606 z"
     fill="#2f2e41"
     id="path1615"
     style="fill:#666666;fill-opacity:1;stroke-width:0.933335"
     sodipodi:insensitive="true" /><path
     d="m 467.34465,430.67583 c -0.0106,1.63334 -0.0282,3.92002 -0.10265,6.74804 -0.0106,0.39198 -0.0282,0.79335 -0.0374,1.20399 -0.0935,3.96668 -0.23317,8.86669 -0.42934,14.40138 -0.0106,0.33583 -0.0176,0.66269 -0.0374,0.99869 -0.26139,6.75735 -0.672,14.62538 -1.38136,27.08543 -1.316,23.01606 -3.61199,3.16399 -5.91733,11.23736 -6.40271,-3.93867 -13.42138,-8.06402 -20.92541,-12.30138 q -2.03001,-1.14801 -4.09734,-2.30534 c -15.00805,-8.37202 -31.77079,-17.14544 -49.27086,-25.83476 -0.69066,-0.34535 -1.39067,-0.69067 -2.08134,-1.02667 -40.08679,-19.81472 -83.84161,-39.08813 -119.28972,-51.94951 -6.84137,-2.48267 -13.37471,-4.72268 -19.51607,-6.69205 -12.93603,-4.1347 -24.11741,-7.02805 -32.72278,-8.27872 -8.96003,-1.30665 -15.14806,-0.83998 -17.64939,1.85734 q -0.14004,-2.85599 -0.28926,-5.46932 -0.0561,-0.86803 -0.11182,-1.70802 c 0.0575,-0.1538 0.13228,-0.3002 0.20495,-0.44818 0.0106,-0.0212 0.0176,-0.0437 0.0282,-0.0653 a 0.93520317,0.93520324 0 0 1 0.0653,-0.14004 1.5147492,1.5147492 0 0 1 0.0935,-0.16791 0.9891967,0.98919674 0 0 1 0.11182,-0.18661 c 0.084,-0.13052 0.17744,-0.27057 0.28009,-0.40133 a 3.2504471,3.2504472 0 0 1 0.2427,-0.28009 0.59453536,0.59453539 0 0 1 0.10265,-0.12135 c 0.0374,-0.0374 0.0748,-0.084 0.12135,-0.13052 a 0.28148497,0.28148497 0 0 1 0.0748,-0.0748 1.8975945,1.8975946 0 0 1 0.24269,-0.23352 8.9823091,8.9823098 0 0 1 1.06399,-0.83999 c 0.13052,-0.084 0.27056,-0.16791 0.40133,-0.26139 a 17.859656,17.859656 0 0 1 2.95868,-1.41868 c 0.35466,-0.13052 0.70936,-0.25187 1.092,-0.38267 0.14004,-0.0374 0.27056,-0.084 0.41067,-0.13052 0.20531,-0.0653 0.41068,-0.13052 0.62534,-0.17744 1.06402,-0.31748 2.212,-0.58801 3.45335,-0.84002 0.37332,-0.0748 0.76534,-0.14922 1.15732,-0.21483 0.31749,-0.0561 0.64403,-0.11183 0.97069,-0.16791 2.772,-0.43866 5.91736,-0.76531 9.38937,-0.98 q 0.48998,-0.0282 0.97999,-0.0561 c 0.38267,-0.0176 0.76534,-0.0374 1.15733,-0.0561 0.32665,-0.0176 0.66269,-0.0282 0.99869,-0.0374 0.32665,-0.0176 0.66265,-0.0282 1.008,-0.0374 0.94267,-0.0282 1.91332,-0.0561 2.90266,-0.0748 2.81867,-0.0466 5.7867,-0.0282 8.90405,0.0374 1.44666,0.0282 2.92132,0.0748 4.43335,0.14004 0.0935,0 0.19613,0.0106 0.28926,0.0106 1.31599,0.0374 2.65069,0.10265 4.004,0.16791 0.95202,0.0466 1.91336,0.0935 2.87466,0.14921 0.90531,0.0561 1.81998,0.11218 2.74399,0.17744 0.71867,0.0374 1.43734,0.0935 2.16533,0.14005 0.61602,0.0466 1.232,0.0935 1.84802,0.13052 0.73733,0.0561 1.47467,0.11217 2.22135,0.16791 1.02666,0.084 2.05333,0.16791 3.09865,0.25187 1.03601,0.0931 2.09069,0.18661 3.14536,0.28009 1.05467,0.0935 2.11866,0.19613 3.18268,0.29878 0.11182,0.0106 0.21448,0.0176 0.31748,0.0282 0.97065,0.10265 1.94133,0.19613 2.92132,0.29879 q 8.14802,0.82601 16.77205,1.93201 5.15202,0.658 10.43474,1.40934 c 5.348,0.75599 10.78001,1.57735 16.24936,2.45466 q 8.21812,1.33 16.52939,2.80936 c 1.40002,0.25186 2.80001,0.50398 4.20935,0.76534 q 2.576,0.47594 5.15201,0.97064 c 1.08269,0.20531 2.16537,0.41068 3.24801,0.62537 1.28803,0.25187 2.58536,0.50399 3.87335,0.756 8.48405,1.68 16.92133,3.47201 25.15345,5.34801 1.35332,0.30795 2.70667,0.62533 4.05067,0.93332 q 4.03202,0.93802 7.98935,1.90401 c 0.72802,0.17743 1.44666,0.35469 2.16533,0.53202 q 2.70202,0.67201 5.34805,1.34401 v 0.0106 c 0.10265,0.0176 0.2053,0.0466 0.30795,0.0748 1.28799,0.32665 2.56666,0.65334 3.83603,0.98934 q 4.49398,1.17599 8.83868,2.37067 c 1.92267,0.54127 3.82667,1.07333 5.70267,1.61467 2.80936,0.82133 5.5627,1.64265 8.24136,2.46401 0.66269,0.20531 1.32534,0.41065 1.97868,0.60667 q 2.94002,0.92398 5.76804,1.83868 c 1.49333,0.48532 2.94933,0.97999 4.38668,1.47467 q 2.15601,0.74198 4.228,1.48401 c 0.89601,0.31748 1.77335,0.64399 2.64134,0.96133 1.26933,0.46667 2.50133,0.93333 3.71468,1.40934 0.37336,0.14004 0.73733,0.28926 1.10134,0.42934 0.68135,0.26139 1.344,0.53199 1.99735,0.80266 0.43865,0.16791 0.86799,0.34535 1.29733,0.532 0.41999,0.16791 0.84933,0.34534 1.26001,0.52268 0.42,0.16791 0.83068,0.34534 1.24132,0.53199 0.34535,0.14004 0.68135,0.28926 1.008,0.43865 0.66269,0.28926 1.32535,0.57866 1.96934,0.87734 0.31748,0.14922 0.63468,0.28926 0.95202,0.43869 l 0.72799,0.33583 c 0.10265,0.0561 0.2053,0.10265 0.30795,0.14921 0.79332,0.37333 1.55866,0.74668 2.30534,1.12001 0.70001,0.35466 1.38133,0.70932 2.03467,1.05467 0.77466,0.41061 1.51199,0.81201 2.22135,1.22266 0.14004,0.0748 0.28009,0.15874 0.41999,0.23317 0.47601,0.27056 0.93332,0.55065 1.39067,0.82129 0.89601,0.55065 1.74534,1.09199 2.53869,1.63333 0.784,0.54131 1.51199,1.07334 2.19334,1.60533 0,0.0106 0,0.0106 0.0106,0.0106 0.32665,0.2614 0.64403,0.52265 0.94267,0.77466 0.48536,0.41999 0.93336,0.82129 1.34401,1.232 a 5.289218,5.2892183 0 0 1 0.39202,0.40134 1.1278345,1.1278346 0 0 1 0.14921,0.14921 c 0.19613,0.21483 0.39202,0.42934 0.57874,0.64403 0.224,0.26139 0.42934,0.52264 0.62533,0.784 0.0935,0.13052 0.19613,0.2614 0.28009,0.39199 0.11217,0.15874 0.224,0.32665 0.31748,0.48532 0.084,0.13087 0.15874,0.27056 0.23317,0.4014 a 6.7728498,6.7728502 0 0 1 0.50398,1.0546 5.6495978,5.6495981 0 0 1 0.25187,0.76535 5.4548106,5.454811 0 0 1 0.15874,0.7561 z"
     opacity="0.2"
     id="path1617"
     style="stroke-width:0.933335"
     sodipodi:insensitive="true" /></svg>
