<?xml version="1.0" encoding="UTF-8" standalone="no"?>
<!-- Created with Inkscape (http://www.inkscape.org/) -->
<svg
   width="818.86658mm"
   height="511.23929mm"
   viewBox="0 0 818.86658 511.23929"
   version="1.1"
   id="svg5"
   xml:space="preserve"
   xmlns:inkscape="http://www.inkscape.org/namespaces/inkscape"
   xmlns:sodipodi="http://sodipodi.sourceforge.net/DTD/sodipodi-0.dtd"
   xmlns="http://www.w3.org/2000/svg"
   xmlns:svg="http://www.w3.org/2000/svg"><sodipodi:namedview
     id="namedview7"
     pagecolor="#ffffff"
     bordercolor="#000000"
     borderopacity="0.25"
     inkscape:showpageshadow="2"
     inkscape:pageopacity="0.0"
     inkscape:pagecheckerboard="0"
     inkscape:deskcolor="#d1d1d1"
     inkscape:document-units="mm"
     showgrid="false" /><defs
     id="defs2" /><rect
     style="fill:#333333;fill-opacity:1;stroke-width:1.06336"
     id="rect8442"
     width="3852.5542"
     height="2700.655"
     x="-2456.2874"
     y="-1556.0238"
     sodipodi:insensitive="true" /><ellipse
     cx="214.01027"
     cy="155.78526"
     fill="#f2f2f2"
     id="circle1737"
     rx="155.78523"
     ry="155.78525"
     style="stroke-width:0.731385" /><path
     d="M 8.3168981e-6,37.405003 C 8.3168981e-6,94.085883 35.558608,139.95132 79.502198,139.95132"
     fill="#2f2e41"
     id="path1739"
     style="stroke-width:0.731385" /><path
     d="m 79.502198,139.95132 c 0,-57.317737 39.681372,-103.698527 88.719892,-103.698527"
     fill="#ff014f"
     id="path1741"
     style="stroke-width:0.731385" /><path
     d="m 28.805178,42.543213 c 0,53.84083 22.67503,97.408107 50.69702,97.408107"
     fill="#ff014f"
     id="path1743"
     style="stroke-width:0.731385" /><path
     d="M 79.502198,139.95132 C 79.502198,66.711993 125.36765,7.4476533 182.04853,7.4476533"
     fill="#2f2e41"
     id="path1745"
     style="stroke-width:0.731385" /><path
     d="m 62.777008,140.6743 c 0,0 11.27473,-0.34725 14.67263,-2.76684 3.39793,-2.41957 17.34337,-5.30877 18.18631,-1.42824 0.84294,3.88054 16.943802,19.29997 4.21469,19.40265 -12.7291,0.10266 -29.57678,-1.98278 -32.96815,-4.04857 -3.39138,-2.0658 -4.10548,-11.159 -4.10548,-11.159 z"
     fill="#a8a8a8"
     id="path1747"
     style="stroke-width:0.731385" /><path
     d="m 100.07785,154.53103 c -12.729112,0.10266 -29.576762,-1.98275 -32.968142,-4.04859 -2.58273,-1.5732 -3.6119,-7.21837 -3.95625,-9.82282 -0.23857,0.0108 -0.37642,0.0147 -0.37642,0.0147 0,0 0.71413,9.09315 4.1055,11.15897 3.3914,2.06584 20.23906,4.15127 32.96816,4.04858 3.674392,-0.0296 4.943582,-1.33693 4.873892,-3.27314 -0.5105,1.16986 -1.91187,1.90032 -4.64674,1.92236 z"
     opacity="0.2"
     id="path1749"
     style="stroke-width:0.731385" /><ellipse
     cx="145.26003"
     cy="310.47379"
     rx="136.76921"
     ry="18.606413"
     fill="#3f3d56"
     id="ellipse1751"
     style="fill:#666666;fill-opacity:1;stroke-width:0.731385" /><ellipse
     cx="145.26003"
     cy="310.47379"
     rx="114.82762"
     ry="15.621428"
     opacity="0.1"
     id="ellipse1753"
     style="stroke-width:0.731385" /><ellipse
     cx="611.88434"
     cy="483.08096"
     rx="206.98227"
     ry="28.158367"
     fill="#3f3d56"
     id="ellipse1755"
     style="fill:#666666;fill-opacity:1;stroke-width:0.731385" /><ellipse
     cx="227.17528"
     cy="472.1102"
     rx="124.33564"
     ry="16.914923"
     fill="#3f3d56"
     id="ellipse1757"
     style="fill:#666666;fill-opacity:1;stroke-width:0.731385" /><path
     d="m 338.3459,457.84792 c 65.82475,16.82188 192.35456,-21.9416 206.25089,-65.82476"
     fill="none"
     stroke="#2f2e41"
     stroke-miterlimit="10"
     stroke-width="1.46277"
     id="path1759" /><path
     d="m 226.44382,189.42919 c 0,0 95.08019,-26.32989 100.93128,58.5109 5.85111,84.84079 -78.25832,108.97654 -12.43357,125.79843"
     fill="none"
     stroke="#2f2e41"
     stroke-miterlimit="10"
     stroke-width="1.46277"
     id="path1761" /><path
     d="m 134.58343,392.96178 c 0,0 28.57693,-7.91362 30.33552,17.5858 1.75859,25.4994 -23.52102,32.75357 -3.737,37.80949"
     fill="none"
     stroke="#2f2e41"
     stroke-miterlimit="10"
     stroke-width="1.46277"
     id="path1763" /><path
     d="m 569.53379,411.94604 -5.76153,36.78518 c 0,0 -28.36448,15.06863 -8.4207,15.51183 19.94379,0.44321 113.90113,0 113.90113,0 0,0 18.171,0 -10.63668,-15.95503 l -5.76153,-38.55795 z"
     fill="#2f2e41"
     id="path1765"
     style="fill:#666666;fill-opacity:1;stroke-width:0.731385" /><path
     d="m 551.33948,463.84392 c 4.52947,-4.03023 12.43275,-8.22956 12.43275,-8.22956 l 5.76156,-36.78523 83.32066,0.0785 5.76154,36.26358 c 6.71778,3.72063 10.87929,6.57297 13.31389,8.76069 3.69996,-0.84418 7.74329,-3.98133 -13.31389,-15.64377 l -5.76154,-38.55796 -83.32066,2.21598 -5.76153,36.7852 c 0,0 -23.83452,12.66367 -12.43278,15.11268 z"
     opacity="0.1"
     id="path1767"
     style="stroke-width:0.731385" /><rect
     x="423.05777"
     y="155.55748"
     width="375.3862"
     height="261.48511"
     rx="13.198359"
     fill="#2f2e41"
     id="rect1769"
     style="fill:#666666;fill-opacity:1;stroke-width:0.731385" /><rect
     x="435.68875"
     y="169.51817"
     width="350.12411"
     height="195.89224"
     fill="#3f3d56"
     id="rect1771"
     style="stroke-width:0.731385" /><ellipse
     cx="610.75085"
     cy="163.3134"
     fill="#f2f2f2"
     id="circle1773"
     rx="2.2159755"
     ry="2.2159758"
     style="stroke-width:0.731385" /><path
     d="m 798.44403,380.92236 v 22.92205 a 13.1967,13.196701 0 0 1 -13.19835,13.19835 H 436.25619 a 13.1967,13.196701 0 0 1 -13.19836,-13.19835 v -22.92205 z"
     fill="#2f2e41"
     id="path1775"
     style="fill:#666666;fill-opacity:1;stroke-width:0.731385" /><polygon
     points="968.978,673.526 642.968,673.526 642.968,668.678 643.417,667.466 651.452,645.651 962.312,645.651 968.978,667.466 "
     fill="#2f2e41"
     id="polygon1777"
     transform="matrix(0.73138614,0,0,0.73138617,8.3168981e-6,1.8332585e-4)" /><path
     d="m 800.45613,483.8367 c -0.4343,1.85697 -2.0741,3.81594 -5.7792,5.66847 -13.2959,6.64793 -40.33081,-1.77278 -40.33081,-1.77278 0,0 -20.83014,-3.54556 -20.83014,-12.85264 a 16.620435,16.620436 0 0 1 1.82594,-1.08581 c 5.58994,-2.95738 24.1244,-10.25493 56.98791,0.309 a 13.705598,13.705599 0 0 1 6.2469,4.09366 c 1.3316,1.55893 2.3758,3.53631 1.8794,5.6401 z"
     fill="#2f2e41"
     id="path1779"
     style="stroke-width:0.731385" /><path
     d="m 800.45613,483.8367 c -16.27407,6.23578 -30.77987,6.7011 -45.66681,-3.63864 -7.50772,-5.21199 -14.3285,-6.50171 -19.4474,-6.40415 5.58994,-2.95738 24.1244,-10.25495 56.98791,0.30899 a 13.705598,13.705599 0 0 1 6.2469,4.09367 c 1.3316,1.55896 2.3758,3.53634 1.8794,5.64013 z"
     opacity="0.1"
     id="path1781"
     style="stroke-width:0.731385" /><ellipse
     cx="780.05145"
     cy="478.42557"
     rx="5.761538"
     ry="1.7727778"
     fill="#f2f2f2"
     id="ellipse1783"
     style="stroke-width:0.731385" /><ellipse
     cx="610.75085"
     cy="399.0936"
     fill="#f2f2f2"
     id="circle1785"
     rx="8.4207039"
     ry="8.4207048"
     style="stroke-width:0.731385" /><polygon
     points="643.417,667.466 968.978,667.466 968.978,673.526 642.968,673.526 642.968,668.678 "
     opacity="0.1"
     id="polygon1787"
     transform="matrix(0.73138614,0,0,0.73138617,8.3168981e-6,1.8332585e-4)" /><rect
     x="79.435188"
     y="116.29038"
     width="152.12833"
     height="176.99544"
     fill="#2f2e41"
     id="rect1789"
     style="stroke-width:0.731385" /><rect
     x="64.076088"
     y="98.737099"
     width="182.84653"
     height="62.899208"
     fill="#3f3d56"
     id="rect1791"
     style="fill:#666666;fill-opacity:1;stroke-width:0.731385" /><rect
     x="64.076088"
     y="173.33855"
     width="182.84653"
     height="62.899208"
     fill="#3f3d56"
     id="rect1793"
     style="fill:#666666;fill-opacity:1;stroke-width:0.731385" /><rect
     x="64.076088"
     y="247.94035"
     width="182.84653"
     height="62.899208"
     fill="#3f3d56"
     id="rect1795"
     style="fill:#666666;fill-opacity:1;stroke-width:0.731385" /><rect
     x="198.65117"
     y="109.70792"
     width="11.702178"
     height="11.70218"
     fill="#ff014f"
     opacity="0.4"
     id="rect1797"
     style="stroke-width:0.731385" /><rect
     x="215.47307"
     y="109.70792"
     width="11.702178"
     height="11.70218"
     fill="#ff014f"
     opacity="0.8"
     id="rect1799"
     style="stroke-width:0.731385" /><rect
     x="232.29488"
     y="109.70792"
     width="11.702178"
     height="11.70218"
     fill="#ff014f"
     id="rect1801"
     style="stroke-width:0.731385" /><rect
     x="198.65117"
     y="183.57805"
     width="11.702178"
     height="11.70218"
     fill="#ff014f"
     opacity="0.4"
     id="rect1803"
     style="stroke-width:0.731385" /><rect
     x="215.47307"
     y="183.57805"
     width="11.702178"
     height="11.70218"
     fill="#ff014f"
     opacity="0.8"
     id="rect1805"
     style="stroke-width:0.731385" /><rect
     x="232.29488"
     y="183.57805"
     width="11.702178"
     height="11.70218"
     fill="#ff014f"
     id="rect1807"
     style="stroke-width:0.731385" /><rect
     x="198.65117"
     y="257.44833"
     width="11.702178"
     height="11.70218"
     fill="#ff014f"
     opacity="0.4"
     id="rect1809"
     style="stroke-width:0.731385" /><rect
     x="215.47307"
     y="257.44833"
     width="11.702178"
     height="11.70218"
     fill="#ff014f"
     opacity="0.8"
     id="rect1811"
     style="stroke-width:0.731385" /><rect
     x="232.29488"
     y="257.44833"
     width="11.702178"
     height="11.70218"
     fill="#ff014f"
     id="rect1813"
     style="stroke-width:0.731385" /><ellipse
     cx="231.56349"
     cy="393.48618"
     fill="#2f2e41"
     id="circle1815"
     rx="57.779503"
     ry="57.77951"
     style="fill:#666666;fill-opacity:1;stroke-width:0.731385" /><rect
     x="205.23369"
     y="438.83206"
     width="17.553267"
     height="31.449604"
     fill="#2f2e41"
     id="rect1817"
     style="fill:#666666;fill-opacity:1;stroke-width:0.731385" /><rect
     x="240.34026"
     y="438.83206"
     width="17.553267"
     height="31.449604"
     fill="#2f2e41"
     id="rect1819"
     style="fill:#666666;fill-opacity:1;stroke-width:0.731385" /><ellipse
     cx="219.86128"
     cy="470.64743"
     rx="14.627723"
     ry="5.4853959"
     fill="#2f2e41"
     id="ellipse1821"
     style="fill:#b3b3b3;stroke-width:0.731385" /><ellipse
     cx="254.96788"
     cy="469.91605"
     rx="14.627723"
     ry="5.4853959"
     fill="#2f2e41"
     id="ellipse1823"
     style="fill:#b3b3b3;stroke-width:0.731385" /><circle
     cx="233.02629"
     cy="378.85843"
     fill="#ffffff"
     id="circle1825"
     style="stroke-width:0.731385"
     r="19.747427" /><ellipse
     cx="233.02629"
     cy="378.85843"
     fill="#3f3d56"
     id="circle1827"
     rx="6.5824747"
     ry="6.5824761"
     style="stroke-width:0.731385" /><path
     d="m 175.51546,339.75265 c -4.66544,-20.89391 10.24806,-42.00637 33.31024,-47.15595 23.06217,-5.14958 45.53984,7.61375 50.20528,28.5077 4.66543,20.89393 -10.61871,28.59997 -33.68088,33.74954 -23.06218,5.14957 -45.16921,5.79266 -49.83464,-15.10129 z"
     fill="#ff014f"
     id="path1829"
     style="stroke-width:0.731385" /><ellipse
     cx="112.41024"
     cy="454.51978"
     rx="28.889751"
     ry="9.0693865"
     transform="rotate(-23.171161)"
     fill="#2f2e41"
     id="ellipse1831"
     style="fill:#666666;fill-opacity:1;stroke-width:0.731385" /><ellipse
     cx="-2.355808"
     cy="447.56403"
     rx="28.889751"
     ry="9.0693865"
     transform="rotate(-23.171161)"
     fill="#2f2e41"
     id="ellipse1833"
     style="fill:#666666;fill-opacity:1;stroke-width:0.731385" /><path
     d="m 265.2073,410.3078 c 0,5.65509 -14.5609,16.8219 -30.71822,16.8219 -16.15736,0 -31.4496,-10.43541 -31.4496,-16.09049 0,-5.65508 15.29224,-4.38832 31.4496,-4.38832 16.15732,0 30.71822,-1.99814 30.71822,3.65691 z"
     fill="#ffffff"
     id="path1835"
     style="stroke-width:0.731385" /></svg>
