<?xml version="1.0" encoding="UTF-8" standalone="no"?>
<!-- Created with Inkscape (http://www.inkscape.org/) -->

<svg
   width="208.17944mm"
   height="151.40967mm"
   viewBox="0 0 208.17944 151.40967"
   version="1.1"
   id="svg5"
   xml:space="preserve"
   xmlns:inkscape="http://www.inkscape.org/namespaces/inkscape"
   xmlns:sodipodi="http://sodipodi.sourceforge.net/DTD/sodipodi-0.dtd"
   xmlns="http://www.w3.org/2000/svg"
   xmlns:svg="http://www.w3.org/2000/svg"><sodipodi:namedview
     id="namedview7"
     pagecolor="#ffffff"
     bordercolor="#000000"
     borderopacity="0.25"
     inkscape:showpageshadow="2"
     inkscape:pageopacity="0.0"
     inkscape:pagecheckerboard="0"
     inkscape:deskcolor="#d1d1d1"
     inkscape:document-units="mm"
     showgrid="false"
     inkscape:lockguides="true" /><defs
     id="defs2"><linearGradient
       id="paint0_linear"
       x1="6.0001998"
       y1="32.999901"
       x2="235"
       y2="344"
       gradientUnits="userSpaceOnUse"
       gradientTransform="matrix(0.02870583,0,0,0.02870583,51.985784,55.78728)"><stop
         stop-color="#41D1FF"
         id="stop38" /><stop
         offset="1"
         stop-color="#BD34FE"
         id="stop40" /></linearGradient><linearGradient
       id="paint1_linear"
       x1="194.651"
       y1="8.8182001"
       x2="236.076"
       y2="292.98901"
       gradientUnits="userSpaceOnUse"
       gradientTransform="matrix(0.02870583,0,0,0.02870583,51.985784,55.78728)"><stop
         stop-color="#FFEA83"
         id="stop43" /><stop
         offset=".0833"
         stop-color="#FFDD35"
         id="stop45" /><stop
         offset="1"
         stop-color="#FFA800"
         id="stop47" /></linearGradient></defs><ellipse
     cx="121.2642"
     cy="19.62723"
     fill="#f2f2f2"
     id="circle3403"
     rx="7.0645733"
     ry="7.0645738"
     style="stroke-width:0.264583" /><path
     d="m 176.06632,131.53813 c 10.50071,-7.99806 15.5161,-21.43799 12.37625,-34.25887 q -0.11703,-0.47783 -0.24704,-0.9535 C 186.11394,88.71543 180.96403,81.48248 173.45824,79.05077 167.15594,77.009 160.2768,78.57909 153.70197,77.76715 140.79524,76.17325 130.78891,65.73019 123.74819,54.7962 116.70746,43.86217 111.29642,31.62311 101.94082,22.590022 86.51963,7.7004993 61.36381,4.4947733 42.24375,14.186739 23.12372,23.878736 10.94446,45.38121 11.46387,66.81112 c 0.51943,21.42993 13.24142,41.9184 31.7169,52.78887 6.78715,3.99336 14.63712,6.82234 22.44944,5.83241 6.77865,-0.85894 12.93788,-4.50126 19.68463,-5.5826 10.60745,-1.70012 21.14732,3.09585 30.32196,8.68462 9.17461,5.58876 18.03666,12.21314 28.46238,14.80408 10.12335,2.51579 22.66518,-4.71535 31.96714,-11.80037 z"
     fill="#f2f2f2"
     id="path3405"
     style="fill:#ff014f;fill-opacity:1;stroke-width:0.264583" /><path
     d="m 160.97938,14.63675 c -0.23021,-0.153458 -0.46302,-0.298979 -0.69323,-0.447146 A 100.60519,100.60519 0 0 0 139.03747,3.8893753 L 137.30709,27.76008 H 126.33747 V 0.40481228 C 125.6469,0.26193728 124.95105,0.12700028 124.2552,2.8201158e-7 V 27.76008 H 111.21916 A 27.058916,27.058917 0 0 1 84.16024,0.70117728 v -2.6e-5 c -0.6985,0.150812 -1.39171,0.31220802 -2.08492,0.48418702 V 27.76009 H 71.4576 L 69.80924,4.9979843 A 100.7687,100.76871 0 0 0 48.12928,16.515297 c -0.11641,0.07937 -0.23283,0.161396 -0.3466,0.240771 -0.58473,0.410104 -1.16152,0.828146 -1.73567,1.251479 V 109.07448 H 77.33928 L 76.7863,101.4148 73.7436,59.35928 h 61.27485 l -3.04271,42.05552 -0.55298,7.65968 h 30.94567 V 15.557506 q -0.69058,-0.468302 -1.38905,-0.920756 z M 82.07534,52.41396 H 73.2409 L 71.60842,29.845 h 10.46692 z m 42.17987,0 h -14.83783 v -0.44715 a 1.6350588,1.6350589 0 0 0 -1.63777,-1.63512 h -6.45054 a 1.634482,1.6344821 0 0 0 -1.63513,1.63512 v 0.44715 H 84.16025 V 29.845 h 40.09496 z m 2.08227,0 V 29.845 h 10.81881 l -1.63247,22.56896 z"
     fill="#3f3d56"
     id="path3407"
     style="fill:#f2f2f2;fill-opacity:1;stroke-width:0.264583" /><path
     d="M 7.4481436e-8,114.90612 A 76.465349,76.465353 0 0 0 7.4400904,122.56581 l 193.2992796,0.26458 a 76.465349,76.465353 0 0 0 7.44009,-7.65969 z"
     fill="#3f3d56"
     id="path3409"
     style="fill:#f2f2f2;fill-opacity:1;stroke-width:0.264583" /><path
     d="m 131.0825,90.37939 v 22.67584 a 1.0906998,1.0906998 0 0 0 1.08984,1.08984 h 33.60327 a 1.0906971,1.0906972 0 0 0 1.08983,-1.08984 V 90.37939 a 1.091229,1.091229 0 0 0 -1.08983,-1.08864 h -33.60327 a 1.0912316,1.0912317 0 0 0 -1.08984,1.08864 z"
     fill="#3f3d56"
     id="path3411"
     style="stroke-width:0.264583" /><path
     d="m 131.87082,90.66153 v 22.11397 a 0.58346709,0.58346712 0 0 0 0.58245,0.58246 h 33.04261 a 0.58346444,0.58346447 0 0 0 0.58246,-0.58246 V 90.66153 a 0.58372638,0.58372641 0 0 0 -0.58246,-0.58367 h -33.04261 a 0.58373167,0.5837317 0 0 0 -0.58245,0.58367 z"
     fill="#ff014f"
     id="path3413"
     style="stroke-width:0.264583" /><path
     d="m 130.37972,117.47762 a 0.65348113,0.65348116 0 0 0 0.51421,0.24602 h 35.9812 a 0.66209332,0.66209335 0 0 0 0.64719,-0.7979 l -0.55854,-2.65303 a 0.66329453,0.66329456 0 0 0 -0.41225,-0.48097 0.64152726,0.64152729 0 0 0 -0.23495,-0.0443 h -34.86633 a 0.64147169,0.64147173 0 0 0 -0.23495,0.0443 0.66323367,0.66323371 0 0 0 -0.41225,0.48097 l -0.55853,2.65303 a 0.66159061,0.66159064 0 0 0 0.1352,0.55188 z"
     fill="#2f2e41"
     id="path3415"
     style="stroke-width:0.264583" /><rect
     x="-166.06105"
     y="-114.89014"
     width="1.1082046"
     height="0.6649217"
     rx="0.12916693"
     transform="scale(-1)"
     fill="#3f3d56"
     id="rect3417"
     style="stroke-width:0.264583" /><rect
     x="-163.84465"
     y="-114.89014"
     width="1.1082046"
     height="0.6649217"
     rx="0.12916693"
     transform="scale(-1)"
     fill="#3f3d56"
     id="rect3419"
     style="stroke-width:0.264583" /><rect
     x="-161.62822"
     y="-114.89014"
     width="1.1082046"
     height="0.6649217"
     rx="0.12916693"
     transform="scale(-1)"
     fill="#3f3d56"
     id="rect3421"
     style="stroke-width:0.264583" /><rect
     x="-159.41182"
     y="-114.89014"
     width="1.1082046"
     height="0.6649217"
     rx="0.12916693"
     transform="scale(-1)"
     fill="#3f3d56"
     id="rect3423"
     style="stroke-width:0.264583" /><rect
     x="-157.19539"
     y="-114.89014"
     width="1.1082046"
     height="0.6649217"
     rx="0.12916693"
     transform="scale(-1)"
     fill="#3f3d56"
     id="rect3425"
     style="stroke-width:0.264583" /><rect
     x="-154.97899"
     y="-114.89014"
     width="1.1082046"
     height="0.6649217"
     rx="0.12916693"
     transform="scale(-1)"
     fill="#3f3d56"
     id="rect3427"
     style="stroke-width:0.264583" /><rect
     x="-152.76259"
     y="-114.89014"
     width="1.1082046"
     height="0.6649217"
     rx="0.12916693"
     transform="scale(-1)"
     fill="#3f3d56"
     id="rect3429"
     style="stroke-width:0.264583" /><rect
     x="-150.54619"
     y="-114.89014"
     width="1.1082046"
     height="0.6649217"
     rx="0.12916693"
     transform="scale(-1)"
     fill="#3f3d56"
     id="rect3431"
     style="stroke-width:0.264583" /><rect
     x="-148.32976"
     y="-114.89014"
     width="1.1082046"
     height="0.6649217"
     rx="0.12916693"
     transform="scale(-1)"
     fill="#3f3d56"
     id="rect3433"
     style="stroke-width:0.264583" /><rect
     x="-146.11336"
     y="-114.89014"
     width="1.1082046"
     height="0.6649217"
     rx="0.12916693"
     transform="scale(-1)"
     fill="#3f3d56"
     id="rect3435"
     style="stroke-width:0.264583" /><rect
     x="-143.89696"
     y="-114.89014"
     width="1.1082046"
     height="0.6649217"
     rx="0.12916693"
     transform="scale(-1)"
     fill="#3f3d56"
     id="rect3437"
     style="stroke-width:0.264583" /><rect
     x="-141.68056"
     y="-114.89014"
     width="1.1082046"
     height="0.6649217"
     rx="0.12916693"
     transform="scale(-1)"
     fill="#3f3d56"
     id="rect3439"
     style="stroke-width:0.264583" /><rect
     x="-139.46413"
     y="-114.89014"
     width="1.1082046"
     height="0.6649217"
     rx="0.12916693"
     transform="scale(-1)"
     fill="#3f3d56"
     id="rect3441"
     style="stroke-width:0.264583" /><rect
     x="-137.24773"
     y="-114.89014"
     width="1.1082046"
     height="0.6649217"
     rx="0.12916693"
     transform="scale(-1)"
     fill="#3f3d56"
     id="rect3443"
     style="stroke-width:0.264583" /><rect
     x="-135.0313"
     y="-114.89014"
     width="1.1082046"
     height="0.6649217"
     rx="0.12916693"
     transform="scale(-1)"
     fill="#3f3d56"
     id="rect3445"
     style="stroke-width:0.264583" /><rect
     x="-132.8149"
     y="-114.89014"
     width="1.1082046"
     height="0.6649217"
     rx="0.12916693"
     transform="scale(-1)"
     fill="#3f3d56"
     id="rect3447"
     style="stroke-width:0.264583" /><rect
     x="-166.08723"
     y="-115.99834"
     width="1.1082046"
     height="0.6649217"
     rx="0.12916693"
     transform="scale(-1)"
     fill="#3f3d56"
     id="rect3449"
     style="stroke-width:0.264583" /><rect
     x="-163.87083"
     y="-115.99834"
     width="1.1082046"
     height="0.6649217"
     rx="0.12916693"
     transform="scale(-1)"
     fill="#3f3d56"
     id="rect3451"
     style="stroke-width:0.264583" /><rect
     x="-161.65443"
     y="-115.99834"
     width="1.1082046"
     height="0.6649217"
     rx="0.12916693"
     transform="scale(-1)"
     fill="#3f3d56"
     id="rect3453"
     style="stroke-width:0.264583" /><rect
     x="-159.438"
     y="-115.99834"
     width="1.1082046"
     height="0.6649217"
     rx="0.12916693"
     transform="scale(-1)"
     fill="#3f3d56"
     id="rect3455"
     style="stroke-width:0.264583" /><rect
     x="-157.2216"
     y="-115.99834"
     width="1.1082046"
     height="0.6649217"
     rx="0.12916693"
     transform="scale(-1)"
     fill="#3f3d56"
     id="rect3457"
     style="stroke-width:0.264583" /><rect
     x="-155.00517"
     y="-115.99834"
     width="1.1082046"
     height="0.6649217"
     rx="0.12916693"
     transform="scale(-1)"
     fill="#3f3d56"
     id="rect3459"
     style="stroke-width:0.264583" /><rect
     x="-152.78877"
     y="-115.99834"
     width="1.1082046"
     height="0.6649217"
     rx="0.12916693"
     transform="scale(-1)"
     fill="#3f3d56"
     id="rect3461"
     style="stroke-width:0.264583" /><rect
     x="-150.57237"
     y="-115.99834"
     width="1.1082046"
     height="0.6649217"
     rx="0.12916693"
     transform="scale(-1)"
     fill="#3f3d56"
     id="rect3463"
     style="stroke-width:0.264583" /><rect
     x="-148.35594"
     y="-115.99834"
     width="1.1082046"
     height="0.6649217"
     rx="0.12916693"
     transform="scale(-1)"
     fill="#3f3d56"
     id="rect3465"
     style="stroke-width:0.264583" /><rect
     x="-146.13954"
     y="-115.99834"
     width="1.1082046"
     height="0.6649217"
     rx="0.12916693"
     transform="scale(-1)"
     fill="#3f3d56"
     id="rect3467"
     style="stroke-width:0.264583" /><rect
     x="-143.92314"
     y="-115.99834"
     width="1.1082046"
     height="0.6649217"
     rx="0.12916693"
     transform="scale(-1)"
     fill="#3f3d56"
     id="rect3469"
     style="stroke-width:0.264583" /><rect
     x="-141.70674"
     y="-115.99834"
     width="1.1082046"
     height="0.6649217"
     rx="0.12916693"
     transform="scale(-1)"
     fill="#3f3d56"
     id="rect3471"
     style="stroke-width:0.264583" /><rect
     x="-139.49031"
     y="-115.99834"
     width="1.1082046"
     height="0.6649217"
     rx="0.12916693"
     transform="scale(-1)"
     fill="#3f3d56"
     id="rect3473"
     style="stroke-width:0.264583" /><rect
     x="-137.27391"
     y="-115.99834"
     width="1.1082046"
     height="0.6649217"
     rx="0.12916693"
     transform="scale(-1)"
     fill="#3f3d56"
     id="rect3475"
     style="stroke-width:0.264583" /><rect
     x="-135.05748"
     y="-115.99834"
     width="1.1082046"
     height="0.6649217"
     rx="0.12916693"
     transform="scale(-1)"
     fill="#3f3d56"
     id="rect3477"
     style="stroke-width:0.264583" /><rect
     x="-132.84108"
     y="-115.99834"
     width="1.1082046"
     height="0.6649217"
     rx="0.12916693"
     transform="scale(-1)"
     fill="#3f3d56"
     id="rect3479"
     style="stroke-width:0.264583" /><rect
     x="-155.44847"
     y="-117.32819"
     width="8.8656397"
     height="0.6649217"
     rx="0.12916693"
     transform="scale(-1)"
     fill="#3f3d56"
     id="rect3481"
     style="stroke-width:0.264583" /><rect
     x="136.42738"
     y="94.915863"
     width="1.5784644"
     height="0.8260715"
     rx="0.41303572"
     fill="#ffffff"
     id="rect3483"
     style="stroke-width:0.264583" /><rect
     x="145.03242"
     y="94.915863"
     width="1.5784644"
     height="0.8260715"
     rx="0.41303572"
     fill="#ffffff"
     id="rect3485"
     style="stroke-width:0.264583" /><rect
     x="147.47054"
     y="94.915863"
     width="1.5784644"
     height="0.8260715"
     rx="0.41303572"
     fill="#ffffff"
     id="rect3487"
     style="stroke-width:0.264583" /><rect
     x="138.76799"
     y="94.847"
     width="5.5023088"
     height="0.8260715"
     rx="0.41303572"
     fill="#ffffff"
     id="rect3489"
     style="stroke-width:0.264583" /><rect
     x="150.24138"
     y="94.847"
     width="5.5023088"
     height="0.8260715"
     rx="0.41303572"
     fill="#ffffff"
     id="rect3491"
     style="stroke-width:0.264583" /><rect
     x="138.72206"
     y="96.780289"
     width="1.5784644"
     height="0.8260715"
     rx="0.41303572"
     fill="#ffffff"
     id="rect3493"
     style="stroke-width:0.264583" /><rect
     x="147.3271"
     y="96.780289"
     width="1.5784644"
     height="0.8260715"
     rx="0.41303572"
     fill="#ffffff"
     id="rect3495"
     style="stroke-width:0.264583" /><rect
     x="149.76521"
     y="96.780289"
     width="1.5784644"
     height="0.8260715"
     rx="0.41303572"
     fill="#ffffff"
     id="rect3497"
     style="stroke-width:0.264583" /><rect
     x="141.06267"
     y="96.711426"
     width="5.5023088"
     height="0.8260715"
     rx="0.41303572"
     fill="#ffffff"
     id="rect3499"
     style="stroke-width:0.264583" /><rect
     x="152.53606"
     y="96.711426"
     width="5.5023088"
     height="0.8260715"
     rx="0.41303572"
     fill="#ffffff"
     id="rect3501"
     style="stroke-width:0.264583" /><rect
     x="141.01677"
     y="98.644714"
     width="1.5784644"
     height="0.8260715"
     rx="0.41303572"
     fill="#ffffff"
     id="rect3503"
     style="stroke-width:0.264583" /><rect
     x="149.62181"
     y="98.644714"
     width="1.5784644"
     height="0.8260715"
     rx="0.41303572"
     fill="#ffffff"
     id="rect3505"
     style="stroke-width:0.264583" /><rect
     x="152.05989"
     y="98.644714"
     width="1.5784644"
     height="0.8260715"
     rx="0.41303572"
     fill="#ffffff"
     id="rect3507"
     style="stroke-width:0.264583" /><rect
     x="143.35738"
     y="98.575851"
     width="5.5023088"
     height="0.8260715"
     rx="0.41303572"
     fill="#ffffff"
     id="rect3509"
     style="stroke-width:0.264583" /><rect
     x="154.83073"
     y="98.575851"
     width="5.5023088"
     height="0.8260715"
     rx="0.41303572"
     fill="#ffffff"
     id="rect3511"
     style="stroke-width:0.264583" /><rect
     x="143.31145"
     y="100.50916"
     width="1.5784644"
     height="0.8260715"
     rx="0.41303572"
     fill="#ffffff"
     id="rect3513"
     style="stroke-width:0.264583" /><rect
     x="151.91649"
     y="100.50916"
     width="1.5784644"
     height="0.8260715"
     rx="0.41303572"
     fill="#ffffff"
     id="rect3515"
     style="stroke-width:0.264583" /><rect
     x="154.35457"
     y="100.50916"
     width="1.5784644"
     height="0.8260715"
     rx="0.41303572"
     fill="#ffffff"
     id="rect3517"
     style="stroke-width:0.264583" /><rect
     x="145.65205"
     y="100.44028"
     width="5.5023088"
     height="0.8260715"
     rx="0.41303572"
     fill="#ffffff"
     id="rect3519"
     style="stroke-width:0.264583" /><rect
     x="145.03242"
     y="107.9229"
     width="1.5784644"
     height="0.8260715"
     rx="0.41303572"
     fill="#ffffff"
     id="rect3521"
     style="stroke-width:0.264583" /><rect
     x="147.47054"
     y="107.9229"
     width="1.5784644"
     height="0.8260715"
     rx="0.41303572"
     fill="#ffffff"
     id="rect3523"
     style="stroke-width:0.264583" /><rect
     x="150.24138"
     y="107.99174"
     width="5.5023088"
     height="0.8260715"
     rx="0.41303572"
     fill="#ffffff"
     id="rect3525"
     style="stroke-width:0.264583" /><rect
     x="136.42738"
     y="107.9229"
     width="1.5784644"
     height="0.8260715"
     rx="0.41303572"
     fill="#ffffff"
     id="rect3527"
     style="stroke-width:0.264583" /><rect
     x="138.76799"
     y="107.99174"
     width="5.5023088"
     height="0.8260715"
     rx="0.41303572"
     fill="#ffffff"
     id="rect3529"
     style="stroke-width:0.264583" /><rect
     x="138.72206"
     y="106.05847"
     width="1.5784644"
     height="0.8260715"
     rx="0.41303572"
     fill="#ffffff"
     id="rect3531"
     style="stroke-width:0.264583" /><rect
     x="147.3271"
     y="106.05847"
     width="1.5784644"
     height="0.8260715"
     rx="0.41303572"
     fill="#ffffff"
     id="rect3533"
     style="stroke-width:0.264583" /><rect
     x="149.76521"
     y="106.05847"
     width="1.5784644"
     height="0.8260715"
     rx="0.41303572"
     fill="#ffffff"
     id="rect3535"
     style="stroke-width:0.264583" /><rect
     x="141.06267"
     y="106.12733"
     width="5.5023088"
     height="0.8260715"
     rx="0.41303572"
     fill="#ffffff"
     id="rect3537"
     style="stroke-width:0.264583" /><rect
     x="141.01677"
     y="104.19405"
     width="1.5784644"
     height="0.8260715"
     rx="0.41303572"
     fill="#ffffff"
     id="rect3539"
     style="stroke-width:0.264583" /><rect
     x="149.62181"
     y="104.19405"
     width="1.5784644"
     height="0.8260715"
     rx="0.41303572"
     fill="#ffffff"
     id="rect3541"
     style="stroke-width:0.264583" /><rect
     x="152.05989"
     y="104.19405"
     width="1.5784644"
     height="0.8260715"
     rx="0.41303572"
     fill="#ffffff"
     id="rect3543"
     style="stroke-width:0.264583" /><rect
     x="143.35738"
     y="104.26291"
     width="5.5023088"
     height="0.8260715"
     rx="0.41303572"
     fill="#ffffff"
     id="rect3545"
     style="stroke-width:0.264583" /><rect
     x="143.31145"
     y="102.32962"
     width="1.5784644"
     height="0.8260715"
     rx="0.41303572"
     fill="#ffffff"
     id="rect3547"
     style="stroke-width:0.264583" /><rect
     x="151.91649"
     y="102.32962"
     width="1.5784644"
     height="0.8260715"
     rx="0.41303572"
     fill="#ffffff"
     id="rect3549"
     style="stroke-width:0.264583" /><rect
     x="154.35457"
     y="102.32962"
     width="1.5784644"
     height="0.8260715"
     rx="0.41303572"
     fill="#ffffff"
     id="rect3551"
     style="stroke-width:0.264583" /><rect
     x="145.65205"
     y="102.39848"
     width="5.5023088"
     height="0.8260715"
     rx="0.41303572"
     fill="#ffffff"
     id="rect3553"
     style="stroke-width:0.264583" /><path
     d="m 133.59269,129.77327 -3.53206,-5.58314 11.08657,-8.83783 4.57606,-5.0697 a 5.0697817,5.0697819 0 0 1 8.57726,1.80655 v 0 a 5.0697764,5.0697766 0 0 1 -3.06127,6.34762 l -7.23604,2.66577 z"
     fill="#ffb6b6"
     id="path3555"
     style="stroke-width:0.264583" /><path
     d="m 50.71798,89.29181 v 27.13566 H 69.72829 V 89.29181 a 0.91228331,0.91228336 0 0 0 -0.64294,-0.87313 0.84002561,0.84002565 0 0 0 -0.27252,-0.0423 H 51.63608 a 0.91632615,0.91632619 0 0 0 -0.9181,0.91546 z m 7.41892,9.32392 a 2.0294414,2.0294415 0 0 1 4.0587,0 v 3.14854 a 2.0293806,2.0293807 0 0 1 -4.0587,0 z"
     fill="#2f2e41"
     id="path3557"
     style="stroke-width:0.264583" /><path
     d="m 50.65979,115.55966 v 2.61673 a 0.51493736,0.51493739 0 0 0 0.51064,0.51329 h 18.10544 a 0.51321757,0.5132176 0 0 0 0.51065,-0.51329 v -2.61673 z"
     fill="#3f3d56"
     id="path3559"
     style="stroke-width:0.264583" /><path
     d="m 20.81213,48.40841 v 49.54586 a 2.3831391,2.3831392 0 0 0 2.38125,2.38124 H 96.61525 A 2.3831285,2.3831286 0 0 0 98.9965,97.95427 V 48.40841 a 2.3842847,2.3842848 0 0 0 -2.38125,-2.3786 H 23.19338 a 2.3842953,2.3842954 0 0 0 -2.38125,2.3786 z"
     fill="#3f3d56"
     id="path3561"
     style="stroke-width:0.264583" /><path
     d="m 22.53456,49.02487 v 48.31821 a 1.2748498,1.2748498 0 0 0 1.27265,1.27265 h 72.19685 a 1.2748392,1.2748393 0 0 0 1.27265,-1.27265 V 49.02487 A 1.275416,1.2754161 0 0 0 96.00406,47.74958 H 23.80721 a 1.2754266,1.2754266 0 0 0 -1.27265,1.27529 z"
     fill="#ffffff"
     id="path3563"
     style="stroke-width:0.264583" /><path
     d="m 35.93306,118.51239 a 0.78009748,0.78009752 0 0 0 0.61384,0.29369 h 42.95245 a 0.79037654,0.79037658 0 0 0 0.77259,-0.9525 l -0.66675,-3.16706 a 0.79180265,0.79180269 0 0 0 -0.49213,-0.57415 0.76584702,0.76584706 0 0 0 -0.28046,-0.0529 H 37.211 a 0.76578352,0.76578356 0 0 0 -0.28046,0.0529 0.7917365,0.79173654 0 0 0 -0.49212,0.57415 l -0.66675,3.16706 a 0.78978123,0.78978127 0 0 0 0.16139,0.65881 z"
     fill="#2f2e41"
     id="path3565"
     style="stroke-width:0.264583" /><path
     d="M 93.66105,54.40563 H 26.10674 a 0.26871083,0.26871084 0 0 1 0,-0.53729 h 67.55431 a 0.26871083,0.26871084 0 0 1 0,0.53729 z"
     fill="#3f3d56"
     id="path3567"
     style="stroke-width:0.264583" /><ellipse
     cx="30.705256"
     cy="50.887234"
     rx="1.5743846"
     ry="1.6094711"
     fill="#3f3d56"
     id="ellipse3569"
     style="stroke-width:0.264583" /><ellipse
     cx="36.144024"
     cy="50.887234"
     rx="1.5743846"
     ry="1.6094711"
     fill="#3f3d56"
     id="ellipse3571"
     style="stroke-width:0.264583" /><ellipse
     cx="41.582806"
     cy="50.887234"
     rx="1.5743846"
     ry="1.6094711"
     fill="#3f3d56"
     id="ellipse3573"
     style="stroke-width:0.264583" /><path
     d="m 90.386,49.67576 h -3.86292 a 0.29244395,0.29244397 0 0 0 0,0.58473 H 90.386 a 0.29239368,0.2923937 0 0 0 0,-0.58473 z"
     fill="#3f3d56"
     id="path3575"
     style="stroke-width:0.264583" /><path
     d="m 90.386,50.77379 h -3.86292 a 0.29243601,0.29243603 0 0 0 0,0.58472 H 90.386 a 0.29238574,0.29238576 0 0 0 0,-0.58472 z"
     fill="#3f3d56"
     id="path3577"
     style="stroke-width:0.264583" /><path
     d="m 90.386,51.87179 h -3.86292 a 0.29244395,0.29244397 0 0 0 0,0.58473 H 90.386 a 0.29239368,0.2923937 0 0 0 0,-0.58473 z"
     fill="#3f3d56"
     id="path3579"
     style="stroke-width:0.264583" /><path
     d="m 183.51387,116.70805 a 1.6976222,1.6976223 0 0 0 1.63595,1.14591 l 7.0093,-0.18038 a 1.6744156,1.6744157 0 0 0 1.58243,-1.23217 l 0.99189,-10.60641 a 2.5913529,2.5913531 0 0 0 1.12129,0.2304 2.5562299,2.5562301 0 1 0 -0.1283,-5.11085 2.1653314,2.1653315 0 0 0 -0.45937,0.0478 1.7323964,1.7323965 0 0 0 -1.28959,-0.55642 l -10.7819,0.27842 a 1.5485903,1.5485904 0 0 0 -0.26596,0.033 1.6839538,1.6839539 0 0 0 -1.28936,2.18668 z m 11.42298,-11.5932 0.70581,-2.5275 a 1.7215088,1.7215089 0 0 0 0.005,-0.89286 c 0.0343,-9e-5 0.0645,-0.0163 0.0987,-0.0164 a 1.8284004,1.8284005 0 0 1 0.0856,3.65578 1.721186,1.7211861 0 0 1 -0.89552,-0.21902 z"
     fill="#2f2e41"
     id="path3581"
     style="fill:#f2f2f2;fill-opacity:1;stroke-width:0.264583" /><path
     d="m 182.92961,100.75734 c 0.22971,1.31342 2.81228,2.23675 5.91763,2.07626 2.85557,-0.13156 5.19045,-1.13427 5.61822,-2.32264 a 1.5941437,1.5941437 0 0 0 -0.48799,-0.0651 l -10.7819,0.27842 a 1.5485903,1.5485904 0 0 0 -0.26596,0.033 z"
     fill="#3f3d56"
     id="path3583"
     style="stroke-width:0.264583" /><path
     d="m 189.41636,110.87975 a 0.13138943,0.13138944 0 0 0 0.0399,-0.0176 l 1.52219,-0.99633 a 0.13208793,0.13208794 0 0 0 9e-5,-0.22125 l -1.58215,-1.03629 a 0.13221811,0.13221812 0 1 0 -0.14498,0.22115 l 1.41312,0.92556 -1.35308,0.88581 a 0.13226785,0.13226786 0 0 0 0.10487,0.23892 z"
     fill="#ff014f"
     id="path3585"
     style="stroke-width:0.264583" /><path
     d="m 187.01216,110.99062 a 0.13229166,0.13229167 0 0 0 0.0334,-0.243 l -1.4031,-0.80442 1.35615,-1.00733 a 0.1321993,0.1321993 0 1 0 -0.1577,-0.21222 l -1.51834,1.12783 a 0.13216202,0.13216202 0 0 0 0.013,0.22086 l 1.57831,0.90479 a 0.13221229,0.1322123 0 0 0 0.0983,0.0135 z"
     fill="#ff014f"
     id="path3587"
     style="stroke-width:0.264583" /><path
     d="m 189.26496,111.75288 a 0.12761648,0.12761648 0 0 0 0.0362,-0.0153 0.13222816,0.13222817 0 0 0 0.0443,-0.1818 l -2.1578,-3.54763 a 0.13236049,0.13236049 0 0 0 -0.22607,0.13773 l 2.15781,3.54763 a 0.13238427,0.13238427 0 0 0 0.14549,0.0594 z"
     fill="#ff014f"
     id="path3589"
     style="stroke-width:0.264583" /><rect
     x="55.39967"
     y="69.010529"
     width="13.419444"
     height="2.8695917"
     rx="0.86364496"
     fill="#ff014f"
     id="rect3591"
     style="stroke-width:0.264583" /><rect
     x="48.584393"
     y="74.74971"
     width="27.049999"
     height="2.8695917"
     rx="0.86364496"
     fill="#e6e6e6"
     id="rect3593"
     style="stroke-width:0.264583" /><rect
     x="48.584393"
     y="80.488876"
     width="27.049999"
     height="2.8695917"
     rx="0.86364496"
     fill="#e6e6e6"
     id="rect3595"
     style="stroke-width:0.264583" /><path
     d="m 76.91735,99.70715 0.0573,0.18109 0.003,0.006 1.72644,5.24881 1.98604,6.04862 3.73663,11.36685 0.0362,1.76569 v 0.006 l 0.27768,14.20402 -0.76966,1.92567 0.86625,3.1571 c 0,0 -0.39842,-4.77229 -2.53534,-2.03169 -1.21033,1.55744 -2.62591,3.15108 -3.78796,4.64514 q 2.53991,1.02773 5.16127,1.85925 c 0.3773,0.12074 0.75759,0.23543 1.1379,0.35013 q 0.12222,0.0362 0.24447,0.0724 a 70.607612,70.607615 0 0 0 17.81992,2.86434 c 0.31389,0.009 0.62177,0.0151 0.92057,0.0211 0.10565,0.003 0.20826,0.006 0.31088,0.006 0.33805,0.003 0.67307,0.006 1.01112,0.006 q 1.0232,0 2.03734,-0.0302 a 70.604953,70.604956 0 0 0 14.84087,-2.00716 c -0.0332,-2.00715 -0.12374,-4.35236 -0.25352,-6.85752 -0.0604,-1.22844 -1.41558,-2.5595 -1.49708,-3.84529 -0.0574,-0.96585 1.15903,-1.87436 1.09564,-2.8553 -0.41048,-6.03958 -0.92359,-3.72114 -1.3039,-7.99804 q -0.0589,-0.62932 -0.10865,-1.20429 c -0.24448,-2.74664 -0.4135,-4.46405 -0.4135,-4.46405 l 1.62383,-10.23498 2.55045,-16.06931 -0.19619,-0.32296 -0.22033,-0.10866 -13.45248,-6.65832 -0.73042,-1.87133 a 2.9048101,2.9048102 0 0 0 -2.68325,-1.83815 l -8.86166,-0.0362 a 2.8922053,2.8922055 0 0 0 -2.3573,1.19827 l -2.3995,3.32311 z"
     fill="#3f3d56"
     id="path3597"
     style="stroke-width:0.264583" /><path
     d="m 86.47021,120.02921 -2.00717,4.29504 -1.37027,2.93376 -2.35728,12.34175 -1.18016,1.25258 -1.01112,-4.43425 -10.58273,2.34975 c -0.34711,-1.92869 -0.0929,0.0652 -0.30723,-2.05055 0.0604,-0.0604 0.12374,-0.12074 0.18713,-0.18111 0.16903,-0.15695 0.31089,-0.30485 0.30787,-0.4467 -0.12073,-7.29819 0.24146,-19.71842 3.26578,-27.24299 a 15.889097,15.889097 0 0 1 1.85926,-3.468 c 0.0604,-0.0815 0.11771,-0.163 0.17506,-0.24447 1.39445,-1.95284 2.27578,-3.87548 3.52535,-5.24275 v -0.003 a 0.14030325,0.14030325 0 0 0 0.0211,-0.0211 0.04153958,0.04153958 0 0 0 0.0121,-0.009 l 8.58398,-4.55155 0.36824,10.34665 0.26259,7.43705 z"
     fill="#3f3d56"
     id="path3599"
     style="stroke-width:0.264583" /><path
     d="m 117.42245,121.24913 2.50719,5.36442 0.87509,1.8682 2.3566,12.3406 1.17627,1.24953 1.01345,-4.43316 0.4762,-0.0977 8.58798,-1.77864 2.50311,7.94975 a 4.7582666,4.7582668 0 0 0 -0.86286,-5.95459 c -0.17094,-0.15467 -0.31339,-0.30526 -0.30934,-0.44771 0.14248,-8.5839 -0.38258,-24.25796 -5.12427,-30.7091 -1.50595,-2.04728 -2.40951,-4.08642 -3.72417,-5.51096 -0.004,-0.004 -0.004,-0.008 -0.008,-0.008 l -3.19914,-5.23826 -0.19536,-0.32155 -0.21977,-0.10988 z"
     fill="#3f3d56"
     id="path3601"
     style="stroke-width:0.264583" /><circle
     id="a657ec4b-47ce-4d2a-9c58-81a811696ca9"
     data-name="Ellipse 5"
     cx="102.23408"
     cy="70.696823"
     r="11.789373"
     fill="#ffb6b6"
     style="stroke-width:0.264583" /><path
     d="m 118.16881,62.462 a 0.99465604,0.99465609 0 0 0 -0.71173,-0.31486 l 0.17727,-0.49212 a 0.93336796,0.93336801 0 0 0 -1.04775,-1.24355 l -0.64558,0.12436 0.0609,-0.43127 a 0.93500308,0.93500313 0 0 0 -1.25148,-1.01071 0.99650283,0.99650288 0 0 1 -0.85725,-0.0608 1.0177118,1.0177119 0 0 1 -0.508,-0.69058 l -0.22489,-1.08479 -0.0238,-0.0582 c -1.09537,-1.82562 -3.20145,-3.15383 -5.7785,-3.64066 -2.29395,-0.43657 -4.64608,-0.21432 -6.91356,-0.005 -0.89958,0.0847 -1.91558,0.17991 -2.76225,0.6985 -0.71967,0.4445 -1.32821,1.3335 -1.20385,2.23043 -2.23573,-0.68527 -4.63286,0.68263 -5.82084,2.40771 -1.40758,2.05317 -1.63777,4.62492 -1.67481,6.63575 -0.10054,4.75721 0.88106,8.64923 2.91042,11.57023 0.14816,0.21167 0.18521,0.65352 0.47889,0.80169 l -0.0609,-0.0979 c 0.32808,0.16404 0.66146,0.42862 0.5371,0.71173 -0.35718,0.81491 2.01613,2.61673 3.6883,3.21204 3.05064,1.08744 7.1067,0.99483 9.95891,0.60325 l 0.10054,-0.67469 c 1.02923,-0.14023 1.75419,-0.40746 1.95792,-0.8255 0.35985,-0.30691 0.66675,-0.58208 0.93398,-0.83608 l 0.003,-0.003 c 0.005,-0.005 0.0159,-0.0132 0.0212,-0.0185 1.28852,-1.23561 1.5875,-1.93938 1.72244,-3.01094 0.12965,-1.0504 -0.10054,-2.11667 -0.33602,-3.07711 4.95829,0.76729 -1.95263,-5.28108 2.667,-6.45054 a 1.4377458,1.4377459 0 0 1 0.16139,-0.0397 c 0.13494,-0.0317 0.26988,-0.0635 0.39953,-0.10054 a 6.9978215,6.9978219 0 0 0 1.77799,-0.75936 c 1.29117,-0.78581 1.71715,-1.82827 2.3839,-3.00302 A 0.90660006,0.90660011 0 0 0 118.16922,62.462 Z"
     fill="#2f2e41"
     id="path3604"
     style="stroke-width:0.264583" /><path
     d="m 143.93129,122.08849 c -0.003,0.46302 -0.008,1.11125 -0.0291,1.91294 q -0.004,0.16669 -0.008,0.34131 c -0.0344,1.47373 -0.0688,2.70934 -0.12436,4.08252 -0.003,0.0952 -0.005,0.18786 -0.0106,0.28311 -0.0741,1.91558 -0.1905,4.14602 -0.39159,7.67821 -0.37306,6.52462 -1.02393,0.89693 -1.67745,3.18558 -0.0318,0.11377 -0.0662,0.24871 -0.0979,0.40746 a 7.3860605,7.3860609 0 0 1 -0.49742,1.67481 c -0.3466,0.20638 -0.70379,0.40481 -1.05568,0.60325 -1.00277,0.55827 -2.02141,1.09536 -3.04799,1.60602 -0.57681,0.28575 -1.15623,0.56621 -1.73831,0.83608 -0.0926,0.0423 -0.18257,0.0847 -0.27252,0.12436 a 71.672223,71.672227 0 0 1 -9.19427,3.50837 c -0.61384,0.18521 -1.22503,0.36513 -1.84415,0.53182 -0.64558,0.17991 -1.29117,0.34925 -1.94469,0.508 a 70.615517,70.615521 0 0 1 -14.84048,2.00818 c -0.67468,0.0212 -1.35466,0.0291 -2.03729,0.0291 -0.33866,0 -0.67204,-0.003 -1.01071,-0.005 -0.10318,0 -0.20637,-0.003 -0.30956,-0.005 -0.29898,-0.008 -0.60854,-0.0132 -0.92075,-0.0212 a 70.554602,70.554606 0 0 1 -17.81969,-2.86544 l -0.24606,-0.0714 c -0.381,-0.11641 -0.75935,-0.23018 -1.13771,-0.35189 q -2.61939,-0.82947 -5.16202,-1.85738 -1.94072,-0.78184 -3.83646,-1.67746 a 0.08959056,0.08959057 0 0 1 -0.0317,-0.0159 c -0.26458,-0.12171 -0.53181,-0.24871 -0.79639,-0.37836 -0.0344,-0.0185 -0.0714,-0.037 -0.10848,-0.0556 q -1.48036,-0.72231 -2.92894,-1.51341 c -0.81227,-1.86533 -1.95527,-2.2225 -2.66435,-3.86292 a 6.8457126,6.8457129 0 0 1 -0.4445,-1.51871 c 0,-0.005 -0.003,-0.0106 -0.003,-0.0185 0.0741,0.98425 -0.31485,-1.74625 -0.003,-0.0106 -0.003,-0.0317 -0.005,-0.0661 -0.008,-0.10584 -0.008,-0.0952 -0.0185,-0.21166 -0.0344,-0.35718 -0.90752,-8.8609 -0.84931,-18.99444 -1.24354,-27.34469 q -0.0397,-0.80963 -0.082,-1.55046 c -0.008,-0.16404 -0.0185,-0.32544 -0.0291,-0.48419 0.0185,-0.0476 0.0397,-0.0979 0.0635,-0.14552 a 0.26511249,0.26511251 0 0 1 0.0185,-0.0397 0.42940287,0.42940289 0 0 1 0.0265,-0.0476 c 0.005,-0.008 0.0132,-0.0185 0.0185,-0.0265 a 0.24260439,0.2426044 0 0 1 0.0132,-0.0265 c 0.0238,-0.037 0.0503,-0.0767 0.0794,-0.11377 0.0132,-0.0159 0.0238,-0.0291 0.037,-0.0423 a 0.21384683,0.21384684 0 0 1 0.0317,-0.037 0.16853958,0.16853959 0 0 1 0.0291,-0.0344 c 0.0106,-0.0106 0.0212,-0.0238 0.0344,-0.037 a 0.07979569,0.07979569 0 0 1 0.0212,-0.0212 0.5379323,0.53793233 0 0 1 0.0688,-0.0661 2.5463155,2.5463157 0 0 1 0.30163,-0.23813 c 0.037,-0.0238 0.0767,-0.0476 0.11377,-0.0741 a 5.0628761,5.0628763 0 0 1 0.83873,-0.40217 c 0.10054,-0.037 0.20108,-0.0714 0.30956,-0.10848 0.0397,-0.0106 0.0767,-0.0238 0.11642,-0.037 0.0582,-0.0185 0.11641,-0.037 0.17727,-0.0503 0.30162,-0.09 0.62706,-0.16669 0.97896,-0.23812 0.0423,-0.008 0.0873,-0.0159 0.13229,-0.0265 0.0635,-0.0132 0.12964,-0.0238 0.19579,-0.0344 0.09,-0.0159 0.18256,-0.0318 0.27517,-0.0476 0.78581,-0.12436 1.67745,-0.21696 2.6617,-0.27782 q 0.13891,-0.008 0.27782,-0.0159 c 0.10848,-0.005 0.21696,-0.0106 0.32808,-0.0159 0.0926,-0.005 0.18785,-0.008 0.2831,-0.0106 0.0926,-0.005 0.18786,-0.008 0.28575,-0.0106 0.26723,-0.008 0.5424,-0.0159 0.82286,-0.0212 0.79904,-0.0159 1.64042,-0.0106 2.52412,0.008 0.41011,0.0106 0.82815,0.0212 1.25677,0.0397 0.0291,0 0.0556,0.003 0.082,0.003 0.37306,0.0132 0.74877,0.0291 1.13506,0.0503 0.26987,0.0132 0.54239,0.0265 0.8149,0.0423 0.25665,0.0159 0.51594,0.0318 0.77788,0.0503 0.20373,0.0106 0.40745,0.0265 0.61383,0.0397 0.17462,0.0132 0.34925,0.0265 0.52387,0.0371 l 0.23813,0.0159 c 0.12965,0.0106 0.25929,0.0185 0.39158,0.0318 0.29104,0.0238 0.58209,0.0476 0.87842,0.0714 0.29369,0.0265 0.59267,0.0529 0.89165,0.0794 0.29897,0.0265 0.6006,0.0556 0.90222,0.0847 0.0317,0.003 0.0609,0.005 0.09,0.008 0.27517,0.0291 0.55034,0.0556 0.82815,0.0847 0.0635,0.005 0.12964,0.0106 0.19314,0.0185 0.26488,0.0266 0.53492,0.0578 0.80222,0.0862 0.082,0.009 0.16364,0.0174 0.24592,0.0264 0.20938,0.0228 0.4158,0.0426 0.62665,0.0673 0.27782,0.0317 0.56094,0.0609 0.83609,0.0979 0.21431,0.0238 0.42862,0.0476 0.64293,0.0741 0.33602,0.0397 0.67734,0.082 1.01865,0.127 0.12965,0.0159 0.25929,0.0317 0.38894,0.0503 0.97366,0.12171 1.95791,0.25665 2.95804,0.39687 1.51606,0.21432 3.05594,0.44715 4.60639,0.6985 q 2.32968,0.37704 4.68577,0.7964 c 0.39688,0.0714 0.79375,0.14288 1.19328,0.21696 q 0.26987,0.0516 0.53975,0.10317 c 0.30691,0.0556 0.61383,0.11377 0.92075,0.17198 0.30691,0.0582 0.61383,0.11642 0.92075,0.17727 0.36512,0.0714 0.73289,0.14288 1.09802,0.21432 2.40506,0.47625 4.79688,0.98425 7.13052,1.51606 0.38364,0.0873 0.76729,0.17727 1.14829,0.26458 q 1.143,0.26591 2.26483,0.53975 c 0.20638,0.0476 0.41011,0.0979 0.61384,0.14817 0.508,0.127 1.016,0.254 1.51606,0.38364 l 0.0873,0.0238 c 0.36777,0.09 0.7276,0.18256 1.08744,0.27781 q 1.27397,0.33337 2.5056,0.67469 0.81756,0.22622 1.61661,0.45773 c 0.79639,0.23018 1.57691,0.46302 2.33627,0.6985 0.18785,0.0582 0.37571,0.11641 0.56091,0.17198 0.55563,0.17197 1.10332,0.3466 1.63513,0.52122 0.42333,0.13759 0.83608,0.27782 1.24354,0.41805 q 0.61119,0.21034 1.19856,0.42068 c 0.25136,0.09 0.50007,0.18521 0.74877,0.27517 0.35719,0.13229 0.70909,0.26458 1.05305,0.39688 0.10583,0.0397 0.20902,0.082 0.3122,0.1217 0.0661,0.0291 0.12965,0.0529 0.19315,0.0794 0.12435,0.0503 0.25135,0.0979 0.37306,0.14817 0.12436,0.0476 0.24606,0.0979 0.36777,0.15081 0.11907,0.0476 0.24077,0.0979 0.35719,0.14816 0.11906,0.0476 0.23548,0.0979 0.3519,0.15082 0.0979,0.0397 0.19314,0.082 0.28575,0.12435 0.18785,0.082 0.3757,0.16404 0.55827,0.24871 0.0899,0.0423 0.17991,0.082 0.26987,0.12435 l 0.20638,0.0952 c 0.0291,0.0159 0.0582,0.0291 0.0873,0.0423 0.0661,0.0318 0.13494,0.0661 0.20108,0.0979 0.15345,0.0714 0.30427,0.14817 0.45244,0.21961 0.19844,0.10054 0.39158,0.20108 0.57679,0.29898 0.18786,0.10052 0.37042,0.20108 0.54504,0.29896 0.0291,0.0159 0.0556,0.0318 0.0847,0.0476 0.0397,0.0212 0.0794,0.045 0.11906,0.0662 0.13494,0.0767 0.26459,0.1561 0.39423,0.23281 0.254,0.15611 0.49477,0.30957 0.71967,0.46302 0.0503,0.0344 0.0979,0.0688 0.14816,0.10055 0.16669,0.11906 0.32544,0.23548 0.47361,0.35454 0,0.003 0,0.003 0.003,0.003 0.0503,0.037 0.0979,0.0767 0.14553,0.11377 0.0397,0.037 0.082,0.0688 0.1217,0.10584 0.13759,0.11906 0.26459,0.23282 0.381,0.34925 a 1.4993937,1.4993938 0 0 1 0.11113,0.11377 0.31971985,0.31971986 0 0 1 0.0423,0.0423 c 0.0529,0.0529 0.10054,0.10584 0.14552,0.15875 a 0.14620081,0.14620082 0 0 1 0.0185,0.0238 c 0.0635,0.0741 0.12171,0.14817 0.17727,0.22225 0.0265,0.0371 0.0556,0.0741 0.0794,0.11113 0.0318,0.045 0.0635,0.0926 0.09,0.13758 0.0238,0.037 0.045,0.0767 0.0661,0.11379 a 1.9199754,1.9199755 0 0 1 0.14288,0.29896 1.3867606,1.3867607 0 0 1 0.0714,0.21696 1.5463361,1.5463362 0 0 1 0.045,0.21433 z"
     fill="#2f2e41"
     id="path3606"
     style="fill:#f2f2f2;fill-opacity:1;stroke-width:0.264583" /><path
     d="m 143.93129,122.08849 c -0.003,0.46302 -0.008,1.11125 -0.0291,1.91294 -0.003,0.11112 -0.008,0.2249 -0.0106,0.34131 -0.0265,1.12448 -0.0661,2.51354 -0.12171,4.08252 -0.003,0.0952 -0.005,0.18786 -0.0106,0.28311 -0.0741,1.91558 -0.1905,4.14602 -0.39159,7.67821 -0.37306,6.52462 -1.02393,0.89693 -1.67745,3.18558 -1.81505,-1.11654 -3.80471,-2.286 -5.93196,-3.48721 q -0.57547,-0.32544 -1.16152,-0.65352 c -4.2545,-2.37331 -9.00642,-4.86041 -13.96736,-7.32367 -0.19579,-0.0979 -0.39423,-0.19579 -0.59002,-0.29104 -11.36385,-5.6171 -23.76752,-11.08075 -33.81639,-14.72671 -1.9394,-0.70379 -3.79148,-1.33879 -5.53244,-1.89707 -3.66712,-1.17211 -6.83683,-1.99232 -9.27629,-2.34686 -2.54,-0.37041 -4.29419,-0.23812 -5.00327,0.52652 q -0.0397,-0.80962 -0.082,-1.55045 -0.0159,-0.24607 -0.0317,-0.48419 c 0.0163,-0.0436 0.0375,-0.0851 0.0581,-0.12705 0.003,-0.006 0.005,-0.0124 0.008,-0.0185 a 0.26511249,0.26511251 0 0 1 0.0185,-0.0397 0.42940287,0.42940289 0 0 1 0.0265,-0.0476 0.28041864,0.28041865 0 0 1 0.0317,-0.0529 c 0.0238,-0.037 0.0503,-0.0767 0.0794,-0.11377 a 0.92144054,0.92144059 0 0 1 0.0688,-0.0794 0.16853958,0.16853959 0 0 1 0.0291,-0.0344 c 0.0106,-0.0106 0.0212,-0.0238 0.0344,-0.037 a 0.07979569,0.07979569 0 0 1 0.0212,-0.0212 0.5379323,0.53793233 0 0 1 0.0688,-0.0662 2.5463155,2.5463157 0 0 1 0.30162,-0.23812 c 0.037,-0.0238 0.0767,-0.0476 0.11377,-0.0741 a 5.0628761,5.0628763 0 0 1 0.83873,-0.40217 c 0.10054,-0.037 0.20109,-0.0714 0.30956,-0.10848 0.0397,-0.0106 0.0767,-0.0238 0.11642,-0.037 0.0582,-0.0185 0.11642,-0.037 0.17727,-0.0503 0.30163,-0.09 0.62706,-0.16669 0.97896,-0.23813 0.10583,-0.0212 0.21696,-0.0423 0.32808,-0.0609 0.09,-0.0159 0.18257,-0.0317 0.27517,-0.0476 0.78581,-0.12435 1.67746,-0.21695 2.66171,-0.27781 q 0.1389,-0.008 0.27781,-0.0159 c 0.10848,-0.005 0.21696,-0.0106 0.32808,-0.0159 0.0926,-0.005 0.18786,-0.008 0.28311,-0.0106 0.0926,-0.005 0.18785,-0.008 0.28575,-0.0106 0.26723,-0.008 0.54239,-0.0159 0.82285,-0.0212 0.79904,-0.0132 1.64042,-0.008 2.52413,0.0106 0.4101,0.008 0.82814,0.0212 1.25677,0.0397 0.0265,0 0.0556,0.003 0.082,0.003 0.37306,0.0106 0.75142,0.0291 1.13506,0.0476 0.26988,0.0132 0.5424,0.0265 0.81491,0.0423 0.25664,0.0159 0.51593,0.0318 0.77787,0.0503 0.20373,0.0106 0.40746,0.0265 0.61383,0.0397 0.17463,0.0132 0.34925,0.0265 0.52388,0.037 0.20902,0.0159 0.41804,0.0318 0.62971,0.0476 0.29104,0.0238 0.58208,0.0476 0.87841,0.0714 0.29369,0.0264 0.59267,0.0529 0.89165,0.0794 0.29898,0.0265 0.6006,0.0556 0.90223,0.0847 0.0317,0.003 0.0608,0.005 0.09,0.008 0.27516,0.0291 0.55033,0.0556 0.82814,0.0847 q 2.30981,0.23416 4.75456,0.54769 1.4605,0.18653 2.95805,0.39952 c 1.51606,0.21431 3.05593,0.44715 4.60639,0.69585 q 2.32968,0.37703 4.68577,0.7964 c 0.39688,0.0714 0.79375,0.14287 1.19327,0.21696 q 0.73025,0.13492 1.4605,0.27516 c 0.30692,0.0582 0.61384,0.11642 0.92075,0.17728 0.36513,0.0714 0.7329,0.14287 1.09802,0.21431 2.40507,0.47625 4.79688,0.98425 7.13053,1.51606 0.38364,0.0873 0.76729,0.17727 1.14829,0.26458 q 1.143,0.26591 2.26483,0.53975 c 0.20638,0.0503 0.4101,0.10055 0.61383,0.15082 q 0.76597,0.1905 1.51607,0.381 v 0.003 c 0.0291,0.005 0.0582,0.0132 0.0873,0.0212 0.36512,0.0926 0.7276,0.18521 1.08744,0.28046 q 1.27396,0.33337 2.5056,0.67204 c 0.54504,0.15344 1.08479,0.30427 1.6166,0.45773 0.7964,0.23283 1.57692,0.46566 2.33627,0.6985 0.18786,0.0582 0.37571,0.11641 0.56092,0.17198 q 0.83344,0.26193 1.63513,0.52123 c 0.42333,0.13758 0.83608,0.27781 1.24354,0.41804 q 0.61119,0.21034 1.19856,0.42069 c 0.254,0.09 0.50271,0.18256 0.74877,0.27252 0.35983,0.13229 0.70908,0.26458 1.05304,0.39952 0.10584,0.0397 0.20902,0.082 0.31221,0.12171 0.19315,0.0741 0.381,0.15081 0.56621,0.22754 0.12435,0.0476 0.24606,0.0979 0.36777,0.15081 0.11906,0.0476 0.24077,0.0979 0.35719,0.14817 0.11906,0.0476 0.23548,0.0979 0.35189,0.15081 0.0979,0.0397 0.19315,0.082 0.28575,0.12435 0.18786,0.082 0.37571,0.16404 0.55827,0.24871 0.09,0.0423 0.17992,0.082 0.26988,0.12436 l 0.20637,0.0952 c 0.0291,0.0159 0.0582,0.0291 0.0873,0.0423 0.22489,0.10583 0.44185,0.21167 0.65352,0.3175 0.19844,0.10054 0.39158,0.20108 0.57679,0.29898 0.2196,0.1164 0.42862,0.23019 0.62971,0.3466 0.0397,0.0212 0.0794,0.045 0.11906,0.0661 0.13494,0.0767 0.26458,0.1561 0.39423,0.23282 0.254,0.1561 0.49477,0.30956 0.71967,0.46302 0.22225,0.15345 0.42862,0.30427 0.62177,0.45508 0,0.003 0,0.003 0.003,0.003 0.0926,0.0741 0.18257,0.14816 0.26723,0.2196 0.13759,0.11906 0.26459,0.23282 0.381,0.34925 a 1.4993937,1.4993938 0 0 1 0.11113,0.11377 0.31971985,0.31971986 0 0 1 0.0423,0.0423 c 0.0556,0.0609 0.11113,0.12171 0.16406,0.18257 0.0635,0.0741 0.12171,0.14816 0.17727,0.22225 0.0265,0.037 0.0556,0.0741 0.0794,0.11112 0.0318,0.045 0.0635,0.0926 0.09,0.13758 0.0238,0.0371 0.045,0.0767 0.0661,0.11379 a 1.9199754,1.9199755 0 0 1 0.14287,0.29896 1.6015546,1.6015547 0 0 1 0.0714,0.21696 1.5463361,1.5463362 0 0 1 0.045,0.21434 z"
     opacity="0.2"
     id="path3608"
     style="stroke-width:0.264583" /><path
     d="m 32.646479,65.49107 5.703197,-8.95063 8.102736,6.12328 -7.053656,7.93008 -4.14155,-1.53852 z"
     fill="#1172b8"
     id="path7719"
     style="stroke-width:0.423176" /><path
     d="m 45.26691,62.82867 -3.376138,-2.55136 -6.250857,8.27154 3.338756,1.19707 z"
     fill="#33aadd"
     id="path7721"
     style="stroke-width:0.423176" /><path
     d="m 39.883206,65.39047 -3.376138,-2.55137 0.724172,-1.30922 3.338757,1.19706 -2.700915,-2.0411 0.596603,-1.14041 5.23302,3.95463 -1.061791,1.05408 -2.832329,-0.81435 2.025678,1.53081 -2.76141,2.9522 -2.535957,-0.8556 -1.515412,-2.20605 1.106881,-1.81563 1.012837,0.76541 -0.469034,0.9716 0.757703,1.10303 1.267981,0.42779 z"
     fill="#ffffff"
     id="path7723"
     style="stroke-width:0.423176" /><polygon
     points="5.902,27.201 3.655,2 28.345,2 26.095,27.197 15.985,30 "
     style="fill:#e44f26"
     id="polygon7740"
     transform="matrix(0.46822516,0,0,0.46822516,72.636159,56.4059)" /><polygon
     points="26.092,4.061 16,4.061 16,27.858 24.17,25.593 "
     style="fill:#f1662a"
     id="polygon7742"
     transform="matrix(0.46822516,0,0,0.46822516,72.636159,56.4059)" /><polygon
     points="16,13.407 11.91,13.407 11.628,10.242 16,10.242 16,7.151 15.989,7.151 8.25,7.151 8.324,7.981 9.083,16.498 16,16.498 "
     style="fill:#ebebeb"
     id="polygon7744"
     transform="matrix(0.46822516,0,0,0.46822516,72.636159,56.4059)" /><polygon
     points="15.986,21.438 12.544,20.509 12.324,18.044 10.651,18.044 9.221,18.044 9.654,22.896 15.986,24.654 16,24.65 16,21.434 "
     style="fill:#ebebeb"
     id="polygon7746"
     transform="matrix(0.46822516,0,0,0.46822516,72.636159,56.4059)" /><polygon
     points="22.341,13.407 15.989,13.407 15.989,16.498 19.795,16.498 19.437,20.507 15.989,21.437 15.989,24.653 22.326,22.896 22.372,22.374 23.098,14.237 23.174,13.407 "
     style="fill:#ffffff"
     id="polygon7748"
     transform="matrix(0.46822516,0,0,0.46822516,72.636159,56.4059)" /><polygon
     points="15.989,7.151 15.989,9.071 15.989,10.235 15.989,10.242 23.445,10.242 23.455,10.242 23.517,9.548 23.658,7.981 23.732,7.151 "
     style="fill:#ffffff"
     id="polygon7750"
     transform="matrix(0.46822516,0,0,0.46822516,72.636159,56.4059)" /><rect
     x="80.542183"
     y="8.8254919"
     width="11.585884"
     height="11.585885"
     fill="#ffca28"
     id="rect7768"
     style="stroke-width:0.413781"
     transform="rotate(57.815655)"
     inkscape:transform-center-x="-97.82128"
     inkscape:transform-center-y="-2.2878705" /><path
     d="m 31.022396,83.95281 0.932109,0.4213 c -0.142166,0.16845 -0.338869,0.79241 -0.05401,1.24498 0.284817,0.45256 0.664235,0.50713 0.82811,0.40399 0.446574,-0.28105 0.313188,-0.84227 0.249077,-1.11182 -0.01059,-0.044 -0.01897,-0.0801 -0.02294,-0.10607 0,-0.0133 -0.0057,-0.0328 -0.01103,-0.0581 -0.06107,-0.30623 -0.286318,-1.43598 0.722302,-2.07078 1.110942,-0.69917 1.91346,0.29256 2.066083,0.53507 0.09981,0.1586 0.560369,0.93349 0.08564,1.76253 l -0.929682,-0.39276 c 0.214484,-0.3493 0.156638,-0.66909 0.05785,-0.82612 -0.244135,-0.38789 -0.579385,-0.28977 -0.708844,-0.20829 -0.363225,0.22859 -0.26077,0.75252 -0.174288,1.19487 0.0225,0.11577 0.04417,0.22588 0.05599,0.32371 0.06085,0.50328 0.120281,1.26317 -0.824007,1.85745 -0.472959,0.29767 -1.488374,0.3829 -2.116913,-0.61577 -0.844304,-1.34157 -0.262668,-2.20405 -0.155536,-2.35421 z"
     fill="#3e3e3e"
     id="path7770"
     style="stroke-width:0.413781"
     inkscape:transform-center-x="-97.585535"
     inkscape:transform-center-y="1.6335553" /><path
     d="m 28.72356,80.5105 0.951039,0.45198 c -0.140534,0.17078 -0.323955,0.60604 -0.114721,0.93847 0.209233,0.33243 0.657749,0.28772 0.821535,0.18464 l 3.220134,-2.02659 0.582387,0.92541 -3.22009,2.02659 c -0.434793,0.29446 -1.478094,0.60725 -2.162317,-0.47993 -0.629025,-0.99953 -0.29651,-1.78892 -0.07797,-2.02057 z"
     fill="#3e3e3e"
     id="path7772"
     style="stroke-width:0.413781"
     inkscape:transform-center-x="-95.518383"
     inkscape:transform-center-y="-1.4680195" /><path
     d="m 63.458384,57.49613 -5.2821,9.44523 c -0.1091,0.19498 -0.3892,0.19614 -0.4999,0.002 l -5.3868,-9.44644 c -0.1206,-0.21149 0.06,-0.46764 0.2998,-0.42484 l 5.2878,0.94518 a 0.28713866,0.28713868 0 0 0 0.1019,-1.6e-4 l 5.1772,-0.94365 c 0.2388,-0.0435 0.4206,0.21065 0.3021,0.42255 z"
     fill="url(#paint0_linear)"
     id="path7789"
     style="fill:url(#paint0_linear);stroke-width:0.401929" /><path
     d="m 60.395984,55.8325 -3.9089,0.76592 a 0.14352914,0.14352915 0 0 0 -0.1157,0.1324 l -0.2404,4.06101 c -0.01,0.0957 0.082,0.1699 0.1755,0.14836 l 1.0883,-0.25113 c 0.1019,-0.0235 0.1938,0.0662 0.1729,0.16857 l -0.3233,1.58332 c -0.022,0.10651 0.078,0.19767 0.1823,0.16608 l 0.6722,-0.20426 c 0.1042,-0.0316 0.2043,0.0598 0.1823,0.1664 l -0.5138,2.48702 c -0.032,0.15555 0.1747,0.24035 0.2611,0.10699 l 0.058,-0.0891 3.1852,-6.3566 c 0.053,-0.10643 -0.038,-0.22777 -0.1556,-0.20522 l -1.1202,0.21619 c -0.1053,0.0203 -0.1948,-0.0777 -0.1651,-0.18074 l 0.7311,-2.53457 c 0.03,-0.10322 -0.06,-0.20133 -0.1655,-0.18067 z"
     fill="url(#paint1_linear)"
     id="path7791"
     style="fill:url(#paint1_linear);stroke-width:0.401929" /><path
     d="m 86.489226,75.46666 q 1.410213,1.39329 0.430684,3.04834 c -0.979553,1.65511 -2.343298,1.1273 -3.039931,1.83244 q -0.696648,0.70507 -0.236453,1.81546 -1.410163,-1.39329 -0.430644,-3.04834 c 0.979529,-1.65504 2.343259,-1.1273 3.039907,-1.83237 q 0.696683,-0.70514 0.236437,-1.81553 z m -1.258183,-3.53809 q 1.410208,1.39323 0.430654,3.04835 c -0.979529,1.65504 -2.343259,1.1273 -3.039907,1.83237 q -0.696638,0.70506 -0.236437,1.81553 -1.410213,-1.3933 -0.43066,-3.04841 c 0.979529,-1.65505 2.343259,-1.12731 3.039907,-1.83238 q 0.696648,-0.70506 0.236443,-1.81546 z"
     style="fill:#44a8b3;stroke-width:0.343431"
     id="path7820" /><ellipse
     cx="34.806999"
     cy="-112.08638"
     style="fill:#00d8ff;stroke-width:0.343431"
     id="circle7835"
     rx="0.85857636"
     ry="0.85857648"
     transform="rotate(120.61862)" /><path
     d="m 77.036907,86.03944 a 9.7482771,9.7482764 30.618622 0 1 1.907915,-2.41451 3.8807656,3.8807653 30.618622 0 1 1.218345,-0.73833 1.2167745,1.2167745 0 0 1 1.016636,0.0178 c 0.488533,0.28911 0.649675,1.10922 0.430886,2.19366 a 9.8753461,9.8753461 0 0 1 -1.200684,2.93771 9.8475282,9.8475282 0 0 1 -1.969393,2.43481 3.9068662,3.906866 30.618622 0 1 -1.170342,0.71929 1.1645731,1.1645731 0 0 1 -0.988121,-0.0101 c -0.50775,-0.30056 -0.66722,-1.20504 -0.415022,-2.36073 a 9.8908011,9.8908004 30.618622 0 1 1.16978,-2.77963 z m 3.019632,1.78715 a 9.598198,9.5981972 30.618622 0 0 1.151424,-2.81001 c 0.201015,-0.99841 0.02571,-1.60304 -0.236443,-1.75816 -0.274268,-0.16234 -0.941456,-0.0188 -1.758933,0.67936 a 9.3447463,9.3447456 30.618622 0 0 -1.822194,2.31088 9.4786843,9.4786836 30.618622 0 0 -1.122204,2.65809 c -0.236735,1.0871 -0.04981,1.75634 0.223907,1.91836 a 0.79916298,0.79916291 30.618622 0 0 0.641571,-0.0233 3.5009313,3.5009312 30.618621 0 0 1.041716,-0.64486 9.4312907,9.4312899 30.618622 0 0 1.881191,-2.33026 z"
     style="fill:#00d8ff;stroke-width:0.343431"
     id="path7837" /><path
     d="m 76.039325,83.18231 a 0.9063133,0.90631322 30.618622 0 1 0.330615,-0.33746 c 0.494616,-0.27872 1.285354,-0.009 2.115656,0.72258 a 9.8753461,9.8753461 0 0 1 1.944929,2.5079 v 0 a 9.8482151,9.8482151 0 0 1 1.125535,2.92209 3.9068662,3.906866 30.618622 0 1 0.03852,1.37319 1.1645731,1.1645731 0 0 1 -0.503426,0.85061 c -0.514029,0.29003 -1.376943,-0.024 -2.252257,-0.81941 a 9.8928611,9.8928604 30.618622 0 1 -1.823673,-2.40261 9.7482771,9.7482764 30.618622 0 1 -1.13849,-2.85907 3.8807656,3.8807653 30.618622 0 1 -0.03073,-1.4241 1.691739,1.691739 0 0 1 0.193325,-0.53372 z m 4.034423,3.09534 a 9.598198,9.5981972 30.618622 0 0 -1.858862,-2.40118 c -0.764821,-0.67328 -1.375919,-0.82273 -1.642639,-0.67284 -0.276786,0.1555 -0.486713,0.80621 -0.290348,1.86341 a 9.3444025,9.3444018 30.618622 0 0 1.092483,2.73258 9.4786843,9.4786836 30.618622 0 0 1.741789,2.30025 c 0.82397,0.74863 1.497371,0.92168 1.774175,0.76545 a 0.79916298,0.79916291 30.618622 0 0 0.300418,-0.56762 3.5009313,3.5009312 30.618621 0 0 -0.04025,-1.22512 9.4319776,9.4319768 30.618622 0 0 -1.079668,-2.79392 z"
     style="fill:#00d8ff;stroke-width:0.343431"
     id="path7839" /><path
     d="m 74.048964,86.53661 c 0.237016,-0.4005 0.780382,-0.76572 1.549253,-1.02574 a 9.8756899,9.8756892 30.618622 0 1 3.144139,-0.43262 v 0 a 9.8482151,9.8482151 0 0 1 3.093748,0.48453 3.9068662,3.906866 30.618622 0 1 1.209959,0.65272 1.1645731,1.1645731 0 0 1 0.484212,0.85886 c -0.0057,0.59011 -0.708512,1.18091 -1.834539,1.54214 a 9.8908011,9.8908004 30.618622 0 1 -2.992168,0.38014 9.7479333,9.7479333 0 0 1 -3.045669,-0.4417 3.8807656,3.8807653 30.618622 0 1 -1.249398,-0.68451 1.2167745,1.2167745 0 0 1 -0.493792,-0.8885 0.88948518,0.88948511 30.618622 0 1 0.134255,-0.44532 z m 4.690273,-1.0472 a 9.5985411,9.5985411 0 0 0 -3.008493,0.41119 c -0.965289,0.32618 -1.400284,0.78071 -1.401125,1.08626 -0.0024,0.31776 0.455219,0.82413 1.469212,1.1816 a 9.3454332,9.3454325 30.618622 0 0 2.910215,0.41706 9.4786843,9.4786836 30.618622 0 0 2.862402,-0.35919 C 82.63148,87.8863 83.117507,87.3895 83.120499,87.07155 A 0.79916298,0.79916291 30.618622 0 0 82.77882,86.52816 3.5009313,3.5009312 30.618621 0 0 81.698536,85.9496 9.4323214,9.4323207 30.618622 0 0 78.738533,85.48924 Z"
     style="fill:#00d8ff;stroke-width:0.343431"
     id="path7841" /><path
     d="m 48.254504,95.78808 c -0.03403,0.018 -0.03102,0.0237 0,0.007 0.01077,-0.004 0.01938,-0.0103 0.02714,-0.0174 0,-0.006 0,-0.006 -0.02843,0.0103 z m 0.06858,-0.0371 c -0.01637,0.0134 -0.01637,0.0134 0.0043,0.005 0.01034,-0.006 0.01938,-0.0117 0.01938,-0.0134 0,-0.008 -0.0047,-0.006 -0.0224,0.009 z m 0.04459,-0.0269 c -0.01637,0.0134 -0.01637,0.0134 0.0043,0.005 0.01034,-0.006 0.01938,-0.0123 0.01938,-0.0137 0,-0.007 -0.0047,-0.006 -0.02283,0.009 z m 0.04515,-0.0266 c -0.01637,0.0134 -0.01637,0.0134 0.0043,0.004 0.01034,-0.006 0.01938,-0.0117 0.01938,-0.0134 0,-0.007 -0.0047,-0.006 -0.02197,0.009 z m 0.06087,-0.0403 c -0.03102,0.0208 -0.04179,0.0343 -0.01335,0.0194 0.01895,-0.0117 0.05169,-0.0374 0.04601,-0.0374 -0.01249,0.005 -0.0224,0.0123 -0.03274,0.018 z m -2.732854,-8.4407 c -0.02068,10e-4 -0.08344,0.007 -0.138322,0.0117 -1.2997,0.11774 -2.515699,0.81731 -3.286446,1.89498 -0.426082,0.5907 -0.702727,1.27685 -0.807019,1.99729 -0.03705,0.25149 -0.04135,0.32579 -0.04135,0.66672 0,0.34064 0.0047,0.4138 0.04135,0.66529 0.248904,1.7178 1.47089,3.15983 3.127274,3.69423 0.298055,0.0952 0.610411,0.16089 0.966191,0.20119 0.138322,0.0149 0.736457,0.0149 0.87478,0 0.614978,-0.0686 1.134237,-0.22033 1.648069,-0.48239 0.07888,-0.04 0.09374,-0.0506 0.08314,-0.0594 C 47.957019,95.4743 47.71014,95.14222 47.462917,94.8073 L 46.732189,93.82051 45.81683,92.4645 c -0.305206,-0.45381 -0.611532,-0.90648 -0.922769,-1.35572 -0.0043,0 -0.0069,0.6027 -0.0086,1.33772 -0.0043,1.28742 -0.0043,1.33971 -0.01938,1.36944 -0.01637,0.0357 -0.04316,0.0654 -0.07887,0.082 -0.02843,0.0134 -0.05376,0.0163 -0.188896,0.0163 h -0.154606 l -0.04049,-0.0252 c -0.02499,-0.0163 -0.04601,-0.0389 -0.05945,-0.0654 l -0.01938,-0.0403 v -1.79211 l 0.0043,-1.7921 0.02843,-0.0357 c 0.01809,-0.022 0.04049,-0.04 0.06548,-0.0534 0.03748,-0.018 0.0523,-0.0208 0.206902,-0.0208 0.181444,0 0.211469,0.007 0.259199,0.0594 0.37034,0.55212 0.739559,1.10567 1.102791,1.66094 0.594128,0.90077 1.405153,2.12989 1.803838,2.73288 l 0.724999,1.0971 0.03575,-0.0237 c 0.34837,-0.23234 0.665293,-0.50897 0.938794,-0.82447 0.576122,-0.65957 0.949908,-1.47089 1.076513,-2.33679 0.03705,-0.25149 0.04136,-0.32607 0.04136,-0.66672 0,-0.34093 -0.0047,-0.4138 -0.04136,-0.66528 -0.248903,-1.71781 -1.47089,-3.15984 -3.12723,-3.69453 -0.309815,-0.098 -0.628461,-0.16489 -0.951071,-0.19918 -0.08659,-0.009 -0.67757,-0.0194 -0.751879,-0.0117 z m 1.870954,2.76546 c 0.04316,0.0206 0.07573,0.0594 0.09059,0.10402 0.0078,0.024 0.009,0.52097 0.0078,1.64036 l -0.0043,1.6072 -0.282634,-0.43437 -0.284313,-0.43467 v -1.16682 c 0,-0.75645 0.0043,-1.18055 0.0073,-1.20141 0.01335,-0.0477 0.04605,-0.0877 0.08947,-0.11288 0.03532,-0.018 0.04915,-0.0194 0.190619,-0.0194 0.132292,0 0.154606,10e-4 0.18433,0.018 z"
     id="path7857"
     style="stroke-width:0.285777" /></svg>
